<?xml version="1.0" encoding="UTF-8" standalone="no"?>
<!DOCTYPE svg PUBLIC "-//W3C//DTD SVG 1.1//EN"
 "http://www.w3.org/Graphics/SVG/1.1/DTD/svg11.dtd">
<!-- Generated by graphviz version 2.38.0 (20140413.2041)
 -->
<!-- Title: larvitlibs Pages: 1 -->
<svg width="836pt" height="2537pt"
 viewBox="0.00 0.00 835.74 2537.00" xmlns="http://www.w3.org/2000/svg" xmlns:xlink="http://www.w3.org/1999/xlink">
<g id="graph0" class="graph" transform="scale(1 1) rotate(0) translate(4 2533)">
<title>larvitlibs</title>
<polygon fill="white" stroke="none" points="-4,4 -4,-2533 831.739,-2533 831.739,4 -4,4"/>
<!-- larvitfs -->
<g id="node1" class="node"><title>larvitfs</title>
<ellipse fill="none" stroke="red" cx="74.0934" cy="-2159" rx="35.9954" ry="18"/>
<text text-anchor="middle" x="74.0934" y="-2155.3" font-family="Times,serif" font-size="14.00">larvitfs</text>
</g>
<!-- larvitadmingui -->
<g id="node13" class="node"><title>larvitadmingui</title>
<ellipse fill="none" stroke="black" cx="759.495" cy="-1750" rx="63.0888" ry="18"/>
<text text-anchor="middle" x="759.495" y="-1746.3" font-family="Times,serif" font-size="14.00">larvitadmingui</text>
</g>
<!-- larvitfs&#45;&gt;larvitadmingui -->
<g id="edge7" class="edge"><title>larvitfs&#45;&gt;larvitadmingui</title>
<path fill="none" stroke="red" d="M110.197,-2159.38C223.732,-2159.83 578.109,-2154.93 655.251,-2078 699.526,-2033.85 672.904,-2001.77 691.251,-1942 709.393,-1882.9 734.164,-1814.85 748.017,-1777.73"/>
<polygon fill="red" stroke="red" points="751.39,-1778.7 751.62,-1768.11 744.834,-1776.25 751.39,-1778.7"/>
</g>
<!-- larvitproduct -->
<g id="node15" class="node"><title>larvitproduct</title>
<ellipse fill="none" stroke="black" cx="759.495" cy="-1616" rx="55.7903" ry="18"/>
<text text-anchor="middle" x="759.495" y="-1612.3" font-family="Times,serif" font-size="14.00">larvitproduct</text>
</g>
<!-- larvitfs&#45;&gt;larvitproduct -->
<g id="edge8" class="edge"><title>larvitfs&#45;&gt;larvitproduct</title>
<path fill="none" stroke="red" d="M109.844,-2156.83C213.533,-2148.29 521.783,-2107.46 655.251,-1920 706.873,-1847.49 658.99,-1805.95 691.251,-1723 702.872,-1693.12 723.136,-1662.49 738.389,-1641.7"/>
<polygon fill="red" stroke="red" points="741.393,-1643.53 744.58,-1633.42 735.787,-1639.33 741.393,-1643.53"/>
</g>
<!-- larvitfiles -->
<g id="node19" class="node"><title>larvitfiles</title>
<ellipse fill="none" stroke="black" cx="759.495" cy="-1386" rx="44.393" ry="18"/>
<text text-anchor="middle" x="759.495" y="-1382.3" font-family="Times,serif" font-size="14.00">larvitfiles</text>
</g>
<!-- larvitfs&#45;&gt;larvitfiles -->
<g id="edge4" class="edge"><title>larvitfs&#45;&gt;larvitfiles</title>
<path fill="none" stroke="red" d="M101.581,-2147.17C210.541,-2098.28 620.102,-1912.06 655.251,-1860 703.58,-1788.42 659.585,-1553.36 691.251,-1473 700.694,-1449.04 718.862,-1426.17 733.935,-1409.89"/>
<polygon fill="red" stroke="red" points="736.659,-1412.11 741.034,-1402.46 731.597,-1407.27 736.659,-1412.11"/>
</g>
<!-- larvitcms -->
<g id="node20" class="node"><title>larvitcms</title>
<ellipse fill="none" stroke="black" cx="759.495" cy="-588" rx="44.393" ry="18"/>
<text text-anchor="middle" x="759.495" y="-584.3" font-family="Times,serif" font-size="14.00">larvitcms</text>
</g>
<!-- larvitfs&#45;&gt;larvitcms -->
<g id="edge3" class="edge"><title>larvitfs&#45;&gt;larvitcms</title>
<path fill="none" stroke="red" d="M80.2161,-2141.1C94.1641,-2091.43 132.801,-1947.5 148.187,-1825 162.665,-1709.73 142.719,-888.527 184.187,-780 228.819,-663.191 265.768,-640.77 364.474,-564 382.134,-550.265 524.245,-481.957 546.061,-477 593.384,-466.249 610.76,-457.621 655.251,-477 694.705,-494.185 725.88,-534.703 743.255,-561.735"/>
<polygon fill="red" stroke="red" points="740.352,-563.695 748.61,-570.332 746.294,-559.994 740.352,-563.695"/>
</g>
<!-- larvitbase_www -->
<g id="node21" class="node"><title>larvitbase_www</title>
<ellipse fill="none" stroke="black" cx="759.495" cy="-2403" rx="68.4888" ry="18"/>
<text text-anchor="middle" x="759.495" y="-2399.3" font-family="Times,serif" font-size="14.00">larvitbase_www</text>
</g>
<!-- larvitfs&#45;&gt;larvitbase_www -->
<g id="edge1" class="edge"><title>larvitfs&#45;&gt;larvitbase_www</title>
<path fill="none" stroke="red" d="M88.6993,-2175.76C104.598,-2195.97 130.922,-2231.4 148.187,-2265 169.774,-2307.02 146.459,-2336.58 184.187,-2365 222.913,-2394.18 533.043,-2400.95 680.775,-2402.53"/>
<polygon fill="red" stroke="red" points="681.09,-2406.03 691.125,-2402.63 681.161,-2399.03 681.09,-2406.03"/>
</g>
<!-- larvitcss -->
<g id="node23" class="node"><title>larvitcss</title>
<ellipse fill="none" stroke="black" cx="759.495" cy="-2292" rx="40.0939" ry="18"/>
<text text-anchor="middle" x="759.495" y="-2288.3" font-family="Times,serif" font-size="14.00">larvitcss</text>
</g>
<!-- larvitfs&#45;&gt;larvitcss -->
<g id="edge5" class="edge"><title>larvitfs&#45;&gt;larvitcss</title>
<path fill="none" stroke="red" d="M109.242,-2163.16C158.035,-2169.3 250.435,-2181.61 328.474,-2196 470.122,-2222.12 636.041,-2261.75 713.895,-2280.89"/>
<polygon fill="red" stroke="red" points="713.291,-2284.34 723.838,-2283.34 714.966,-2277.55 713.291,-2284.34"/>
</g>
<!-- larvitrouter -->
<g id="node29" class="node"><title>larvitrouter</title>
<ellipse fill="none" stroke="#8b5a2b" cx="256.33" cy="-2338" rx="50.0912" ry="18"/>
<text text-anchor="middle" x="256.33" y="-2334.3" font-family="Times,serif" font-size="14.00">larvitrouter</text>
</g>
<!-- larvitfs&#45;&gt;larvitrouter -->
<g id="edge6" class="edge"><title>larvitfs&#45;&gt;larvitrouter</title>
<path fill="none" stroke="red" d="M91.0883,-2174.89C122.698,-2206.28 193.347,-2276.44 230.851,-2313.69"/>
<polygon fill="red" stroke="red" points="228.763,-2316.55 238.325,-2321.11 233.696,-2311.58 228.763,-2316.55"/>
</g>
<!-- larvitbase_api -->
<g id="node30" class="node"><title>larvitbase_api</title>
<ellipse fill="none" stroke="#8b7765" cx="437.268" cy="-2288" rx="59.5901" ry="18"/>
<text text-anchor="middle" x="437.268" y="-2284.3" font-family="Times,serif" font-size="14.00">larvitbase_api</text>
</g>
<!-- larvitfs&#45;&gt;larvitbase_api -->
<g id="edge2" class="edge"><title>larvitfs&#45;&gt;larvitbase_api</title>
<path fill="none" stroke="red" d="M103.736,-2169.23C165.531,-2191.3 311.931,-2243.59 388.196,-2270.83"/>
<polygon fill="red" stroke="red" points="387.436,-2274.28 398.03,-2274.34 389.79,-2267.68 387.436,-2274.28"/>
</g>
<!-- larvitutils -->
<g id="node2" class="node"><title>larvitutils</title>
<ellipse fill="none" stroke="#8b3a62" cx="74.0934" cy="-1181" rx="44.393" ry="18"/>
<text text-anchor="middle" x="74.0934" y="-1177.3" font-family="Times,serif" font-size="14.00">larvitutils</text>
</g>
<!-- larvitdb -->
<g id="node8" class="node"><title>larvitdb</title>
<ellipse fill="none" stroke="blue" cx="256.33" cy="-1181" rx="38.1938" ry="18"/>
<text text-anchor="middle" x="256.33" y="-1177.3" font-family="Times,serif" font-size="14.00">larvitdb</text>
</g>
<!-- larvitutils&#45;&gt;larvitdb -->
<g id="edge16" class="edge"><title>larvitutils&#45;&gt;larvitdb</title>
<path fill="none" stroke="#8b3a62" d="M118.724,-1181C145.607,-1181 180.09,-1181 207.684,-1181"/>
<polygon fill="#8b3a62" stroke="#8b3a62" points="207.893,-1184.5 217.893,-1181 207.893,-1177.5 207.893,-1184.5"/>
</g>
<!-- larvitamintercom -->
<g id="node9" class="node"><title>larvitamintercom</title>
<ellipse fill="none" stroke="#8b7500" cx="256.33" cy="-807" rx="72.2875" ry="18"/>
<text text-anchor="middle" x="256.33" y="-803.3" font-family="Times,serif" font-size="14.00">larvitamintercom</text>
</g>
<!-- larvitutils&#45;&gt;larvitamintercom -->
<g id="edge13" class="edge"><title>larvitutils&#45;&gt;larvitamintercom</title>
<path fill="none" stroke="#8b3a62" d="M83.7866,-1162.96C112.934,-1102.48 207.32,-906.624 242.209,-834.227"/>
<polygon fill="#8b3a62" stroke="#8b3a62" points="245.536,-835.386 246.724,-824.858 239.23,-832.347 245.536,-835.386"/>
</g>
<!-- larvituser_api -->
<g id="node10" class="node"><title>larvituser_api</title>
<ellipse fill="none" stroke="black" cx="759.495" cy="-2102" rx="59.2899" ry="18"/>
<text text-anchor="middle" x="759.495" y="-2098.3" font-family="Times,serif" font-size="14.00">larvituser_api</text>
</g>
<!-- larvitutils&#45;&gt;larvituser_api -->
<g id="edge10" class="edge"><title>larvitutils&#45;&gt;larvituser_api</title>
<path fill="none" stroke="#8b3a62" d="M76.6194,-1199.15C84.274,-1286.95 120.656,-1667.29 184.187,-1765 309.249,-1957.35 585.573,-2054.01 703.46,-2087.73"/>
<polygon fill="#8b3a62" stroke="#8b3a62" points="702.782,-2091.18 713.357,-2090.52 704.681,-2084.44 702.782,-2091.18"/>
</g>
<!-- larvitlog -->
<g id="node14" class="node"><title>larvitlog</title>
<ellipse fill="none" stroke="black" cx="759.495" cy="-1969" rx="40.0939" ry="18"/>
<text text-anchor="middle" x="759.495" y="-1965.3" font-family="Times,serif" font-size="14.00">larvitlog</text>
</g>
<!-- larvitutils&#45;&gt;larvitlog -->
<g id="edge9" class="edge"><title>larvitutils&#45;&gt;larvitlog</title>
<path fill="none" stroke="#8b3a62" d="M74.6109,-1199.13C73.6272,-1268.11 77.9047,-1518.57 184.187,-1682 307.641,-1871.83 596.839,-1941.12 710.968,-1961.63"/>
<polygon fill="#8b3a62" stroke="#8b3a62" points="710.681,-1965.13 721.135,-1963.41 711.889,-1958.24 710.681,-1965.13"/>
</g>
<!-- larvitutils&#45;&gt;larvitproduct -->
<g id="edge19" class="edge"><title>larvitutils&#45;&gt;larvitproduct</title>
<path fill="none" stroke="#8b3a62" d="M76.2038,-1198.98C80.6484,-1259.41 101.172,-1459.03 184.187,-1596 240.329,-1688.64 270.533,-1706.07 364.474,-1760 478.686,-1825.57 546.748,-1891.63 655.251,-1817 692.11,-1791.65 671.254,-1763.02 691.251,-1723 705.668,-1694.15 725.7,-1663.15 740.145,-1641.98"/>
<polygon fill="#8b3a62" stroke="#8b3a62" points="743.166,-1643.77 745.961,-1633.55 737.403,-1639.8 743.166,-1643.77"/>
</g>
<!-- larvitorder -->
<g id="node18" class="node"><title>larvitorder</title>
<ellipse fill="none" stroke="black" cx="759.495" cy="-1082" rx="48.1917" ry="18"/>
<text text-anchor="middle" x="759.495" y="-1078.3" font-family="Times,serif" font-size="14.00">larvitorder</text>
</g>
<!-- larvitutils&#45;&gt;larvitorder -->
<g id="edge14" class="edge"><title>larvitutils&#45;&gt;larvitorder</title>
<path fill="none" stroke="#8b3a62" d="M111.266,-1171.14C132.414,-1165.6 159.688,-1158.85 184.187,-1154 343.707,-1122.43 384.546,-1118.87 546.061,-1100 598.703,-1093.85 658.919,-1088.95 701.766,-1085.82"/>
<polygon fill="#8b3a62" stroke="#8b3a62" points="702.274,-1089.29 711.996,-1085.09 701.771,-1082.31 702.274,-1089.29"/>
</g>
<!-- larvitutils&#45;&gt;larvitfiles -->
<g id="edge15" class="edge"><title>larvitutils&#45;&gt;larvitfiles</title>
<path fill="none" stroke="#8b3a62" d="M107.624,-1192.79C183.677,-1220.12 379.314,-1289.03 546.061,-1336 601.77,-1351.69 666.633,-1366.46 709.89,-1375.82"/>
<polygon fill="#8b3a62" stroke="#8b3a62" points="709.349,-1379.28 719.861,-1377.96 710.821,-1372.44 709.349,-1379.28"/>
</g>
<!-- larvitutils&#45;&gt;larvitcms -->
<g id="edge11" class="edge"><title>larvitutils&#45;&gt;larvitcms</title>
<path fill="none" stroke="#8b3a62" d="M75.8766,-1162.74C81.3145,-1040.15 115.278,-340.076 184.187,-279 195.992,-268.536 487.357,-276.574 510.061,-283 582.009,-303.365 608.828,-309.382 655.251,-368 689.029,-410.65 668.155,-435.74 691.251,-485 704.42,-513.085 724.292,-542.458 739.023,-562.616"/>
<polygon fill="#8b3a62" stroke="#8b3a62" points="736.219,-564.712 744.986,-570.661 741.842,-560.543 736.219,-564.712"/>
</g>
<!-- larvitammail -->
<g id="node22" class="node"><title>larvitammail</title>
<ellipse fill="none" stroke="black" cx="759.495" cy="-94" rx="56.59" ry="18"/>
<text text-anchor="middle" x="759.495" y="-90.3" font-family="Times,serif" font-size="14.00">larvitammail</text>
</g>
<!-- larvitutils&#45;&gt;larvitammail -->
<g id="edge21" class="edge"><title>larvitutils&#45;&gt;larvitammail</title>
<path fill="none" stroke="#8b3a62" d="M75.7491,-1162.94C80.6102,-1033.69 112.852,-252.016 184.187,-178 321.47,-35.556 585.956,-62.1882 701.802,-82.3447"/>
<polygon fill="#8b3a62" stroke="#8b3a62" points="701.418,-85.8313 711.878,-84.1472 702.651,-78.9407 701.418,-85.8313"/>
</g>
<!-- larvitdbmigration -->
<g id="node24" class="node"><title>larvitdbmigration</title>
<ellipse fill="none" stroke="green" cx="437.268" cy="-1410" rx="72.5877" ry="18"/>
<text text-anchor="middle" x="437.268" y="-1406.3" font-family="Times,serif" font-size="14.00">larvitdbmigration</text>
</g>
<!-- larvitutils&#45;&gt;larvitdbmigration -->
<g id="edge12" class="edge"><title>larvitutils&#45;&gt;larvitdbmigration</title>
<path fill="none" stroke="#8b3a62" d="M79.2551,-1199.16C89.4356,-1239.05 119.624,-1334.24 184.187,-1378 235.561,-1412.82 306.598,-1419.03 360.172,-1417.57"/>
<polygon fill="#8b3a62" stroke="#8b3a62" points="360.439,-1421.06 370.303,-1417.19 360.181,-1414.06 360.439,-1421.06"/>
</g>
<!-- larvituser -->
<g id="node25" class="node"><title>larvituser</title>
<ellipse fill="none" stroke="#912cee" cx="600.656" cy="-1790" rx="44.393" ry="18"/>
<text text-anchor="middle" x="600.656" y="-1786.3" font-family="Times,serif" font-size="14.00">larvituser</text>
</g>
<!-- larvitutils&#45;&gt;larvituser -->
<g id="edge18" class="edge"><title>larvitutils&#45;&gt;larvituser</title>
<path fill="none" stroke="#8b3a62" d="M79.3286,-1199.1C98.0536,-1275 180.749,-1570.39 364.474,-1716 417.826,-1758.28 495.66,-1776.59 546.963,-1784.39"/>
<polygon fill="#8b3a62" stroke="#8b3a62" points="546.776,-1787.9 557.172,-1785.86 547.772,-1780.97 546.776,-1787.9"/>
</g>
<!-- larvitimages -->
<g id="node26" class="node"><title>larvitimages</title>
<ellipse fill="none" stroke="black" cx="600.656" cy="-504" rx="54.6905" ry="18"/>
<text text-anchor="middle" x="600.656" y="-500.3" font-family="Times,serif" font-size="14.00">larvitimages</text>
</g>
<!-- larvitutils&#45;&gt;larvitimages -->
<g id="edge17" class="edge"><title>larvitutils&#45;&gt;larvitimages</title>
<path fill="none" stroke="#8b3a62" d="M76.0475,-1162.98C82.397,-1046.41 120.257,-402.121 184.187,-346 293.031,-250.451 384.914,-273.098 510.061,-346 558.255,-374.074 582.622,-438.776 593.081,-476.092"/>
<polygon fill="#8b3a62" stroke="#8b3a62" points="589.72,-477.072 595.671,-485.838 596.485,-475.274 589.72,-477.072"/>
</g>
<!-- larvitblog -->
<g id="node31" class="node"><title>larvitblog</title>
<ellipse fill="none" stroke="black" cx="759.495" cy="-458" rx="44.6926" ry="18"/>
<text text-anchor="middle" x="759.495" y="-454.3" font-family="Times,serif" font-size="14.00">larvitblog</text>
</g>
<!-- larvitutils&#45;&gt;larvitblog -->
<g id="edge20" class="edge"><title>larvitutils&#45;&gt;larvitblog</title>
<path fill="none" stroke="#8b3a62" d="M75.8759,-1162.99C81.3704,-1040.53 115.944,-333.307 184.187,-270 337.763,-127.531 476.787,-144.302 655.251,-254 718.467,-292.857 744.412,-383.745 753.81,-429.955"/>
<polygon fill="#8b3a62" stroke="#8b3a62" points="750.395,-430.732 755.715,-439.894 757.27,-429.414 750.395,-430.732"/>
</g>
<!-- check_object_key -->
<g id="node3" class="node"><title>check_object_key</title>
<ellipse fill="none" stroke="mediumvioletred" cx="74.0934" cy="-1798" rx="74.187" ry="18"/>
<text text-anchor="middle" x="74.0934" y="-1794.3" font-family="Times,serif" font-size="14.00">check_object_key</text>
</g>
<!-- check_object_key&#45;&gt;larvitlog -->
<g id="edge22" class="edge"><title>check_object_key&#45;&gt;larvitlog</title>
<path fill="none" stroke="mediumvioletred" d="M78.3827,-1816.14C87.0418,-1857.9 114.768,-1960.4 184.187,-2002 359.771,-2107.22 622.335,-2022.8 720.051,-1984.96"/>
<polygon fill="mediumvioletred" stroke="mediumvioletred" points="721.499,-1988.15 729.526,-1981.23 718.938,-1981.64 721.499,-1988.15"/>
</g>
<!-- check_object_key&#45;&gt;larvitproduct -->
<g id="edge27" class="edge"><title>check_object_key&#45;&gt;larvitproduct</title>
<path fill="none" stroke="mediumvioletred" d="M83.793,-1815.9C99.253,-1845.36 134.613,-1903.12 184.187,-1926 282.009,-1971.16 605.682,-1932.89 655.251,-1888 710.888,-1837.62 662.858,-1792.48 691.251,-1723 703.379,-1693.32 723.571,-1662.66 738.669,-1641.81"/>
<polygon fill="mediumvioletred" stroke="mediumvioletred" points="741.674,-1643.63 744.79,-1633.51 736.039,-1639.48 741.674,-1643.63"/>
</g>
<!-- larvitamsettings -->
<g id="node17" class="node"><title>larvitamsettings</title>
<ellipse fill="none" stroke="black" cx="759.495" cy="-816" rx="67.6881" ry="18"/>
<text text-anchor="middle" x="759.495" y="-812.3" font-family="Times,serif" font-size="14.00">larvitamsettings</text>
</g>
<!-- check_object_key&#45;&gt;larvitamsettings -->
<g id="edge30" class="edge"><title>check_object_key&#45;&gt;larvitamsettings</title>
<path fill="none" stroke="mediumvioletred" d="M77.6303,-1779.68C87.6019,-1707.25 124.707,-1433.85 148.187,-1208 158.056,-1113.06 127.204,-856.571 184.187,-780 310.123,-610.775 462.123,-637.156 655.251,-722 689.447,-737.022 719.879,-768.013 738.692,-790.308"/>
<polygon fill="mediumvioletred" stroke="mediumvioletred" points="736.029,-792.58 745.082,-798.083 741.436,-788.135 736.029,-792.58"/>
</g>
<!-- check_object_key&#45;&gt;larvitorder -->
<g id="edge28" class="edge"><title>check_object_key&#45;&gt;larvitorder</title>
<path fill="none" stroke="mediumvioletred" d="M103.959,-1781.5C196.339,-1727.39 488.415,-1545.98 655.251,-1324 706.789,-1255.43 738.273,-1157.23 751.39,-1109.78"/>
<polygon fill="mediumvioletred" stroke="mediumvioletred" points="754.825,-1110.48 754.052,-1099.91 748.067,-1108.66 754.825,-1110.48"/>
</g>
<!-- check_object_key&#45;&gt;larvitfiles -->
<g id="edge24" class="edge"><title>check_object_key&#45;&gt;larvitfiles</title>
<path fill="none" stroke="mediumvioletred" d="M110.253,-1813.88C210.518,-1856.47 500.566,-1960.69 655.251,-1817 711.566,-1764.69 662.66,-1544.35 691.251,-1473 700.832,-1449.09 718.993,-1426.22 734.028,-1409.93"/>
<polygon fill="mediumvioletred" stroke="mediumvioletred" points="736.751,-1412.15 741.106,-1402.49 731.678,-1407.32 736.751,-1412.15"/>
</g>
<!-- check_object_key&#45;&gt;larvitcms -->
<g id="edge29" class="edge"><title>check_object_key&#45;&gt;larvitcms</title>
<path fill="none" stroke="mediumvioletred" d="M77.7482,-1779.69C88.1609,-1707.31 126.695,-1434.05 148.187,-1208 153.899,-1147.92 152.979,-717.66 184.187,-666 281.751,-504.496 364.472,-495.261 546.061,-444 592.765,-430.816 612.081,-421.832 655.251,-444 667.876,-450.483 715.951,-522.449 741.805,-562.12"/>
<polygon fill="mediumvioletred" stroke="mediumvioletred" points="738.882,-564.046 747.265,-570.525 744.752,-560.232 738.882,-564.046"/>
</g>
<!-- check_object_key&#45;&gt;larvituser -->
<g id="edge25" class="edge"><title>check_object_key&#45;&gt;larvituser</title>
<path fill="none" stroke="mediumvioletred" d="M137.555,-1807.41C152.776,-1809.31 169.037,-1811.03 184.187,-1812 315.262,-1820.38 469.746,-1805.75 548.254,-1796.58"/>
<polygon fill="mediumvioletred" stroke="mediumvioletred" points="548.843,-1800.03 558.36,-1795.38 548.017,-1793.08 548.843,-1800.03"/>
</g>
<!-- check_object_key&#45;&gt;larvitimages -->
<g id="edge26" class="edge"><title>check_object_key&#45;&gt;larvitimages</title>
<path fill="none" stroke="mediumvioletred" d="M77.8533,-1779.7C88.6589,-1707.35 128.466,-1434.21 148.187,-1208 151.617,-1168.65 155.561,-525.211 184.187,-498 285.779,-401.428 472.503,-454.911 556.6,-486.297"/>
<polygon fill="mediumvioletred" stroke="mediumvioletred" points="555.504,-489.625 566.095,-489.911 557.993,-483.083 555.504,-489.625"/>
</g>
<!-- check_object_key&#45;&gt;larvitblog -->
<g id="edge23" class="edge"><title>check_object_key&#45;&gt;larvitblog</title>
<path fill="none" stroke="mediumvioletred" d="M77.8789,-1779.7C88.7805,-1707.36 128.898,-1434.25 148.187,-1208 151.815,-1165.44 153.819,-470.037 184.187,-440 331.217,-294.568 616.744,-396.486 720.032,-440.513"/>
<polygon fill="mediumvioletred" stroke="mediumvioletred" points="718.88,-443.828 729.448,-444.583 721.657,-437.403 718.88,-443.828"/>
</g>
<!-- larvitmail -->
<g id="node4" class="node"><title>larvitmail</title>
<ellipse fill="none" stroke="olivedrab" cx="74.0934" cy="-18" rx="45.4919" ry="18"/>
<text text-anchor="middle" x="74.0934" y="-14.3" font-family="Times,serif" font-size="14.00">larvitmail</text>
</g>
<!-- larvitmail&#45;&gt;larvitammail -->
<g id="edge89" class="edge"><title>larvitmail&#45;&gt;larvitammail</title>
<path fill="none" stroke="olivedrab" d="M118.584,-13.6395C216.384,-5.15615 460.346,8.59018 655.251,-42 679.903,-48.3987 705.485,-61.2315 725.017,-72.5472"/>
<polygon fill="olivedrab" stroke="olivedrab" points="723.429,-75.6754 733.814,-77.7777 727.007,-69.6586 723.429,-75.6754"/>
</g>
<!-- larvitslugify -->
<g id="node5" class="node"><title>larvitslugify</title>
<ellipse fill="none" stroke="orange" cx="74.0934" cy="-132" rx="53.8905" ry="18"/>
<text text-anchor="middle" x="74.0934" y="-128.3" font-family="Times,serif" font-size="14.00">larvitslugify</text>
</g>
<!-- larvitslugify&#45;&gt;larvitcms -->
<g id="edge86" class="edge"><title>larvitslugify&#45;&gt;larvitcms</title>
<path fill="none" stroke="orange" d="M126.574,-127.351C244.413,-119.948 532.984,-120.932 655.251,-292 705.99,-362.989 658.773,-404.012 691.251,-485 702.797,-513.79 722.889,-543.068 738.111,-563.012"/>
<polygon fill="orange" stroke="orange" points="735.394,-565.219 744.298,-570.96 740.917,-560.919 735.394,-565.219"/>
</g>
<!-- larvitslugify&#45;&gt;larvitimages -->
<g id="edge87" class="edge"><title>larvitslugify&#45;&gt;larvitimages</title>
<path fill="none" stroke="orange" d="M123.234,-139.475C210.841,-155.408 397.631,-200.44 510.061,-308 559.284,-355.091 583.81,-434.34 593.871,-476.185"/>
<polygon fill="orange" stroke="orange" points="590.47,-477.014 596.123,-485.975 597.292,-475.445 590.47,-477.014"/>
</g>
<!-- larvitslugify&#45;&gt;larvitblog -->
<g id="edge88" class="edge"><title>larvitslugify&#45;&gt;larvitblog</title>
<path fill="none" stroke="orange" d="M100.356,-115.955C121.741,-103.38 153.695,-86.8955 184.187,-80 302.273,-53.2959 651.885,-115.188 655.251,-118 751.005,-197.979 759.902,-363.787 759.417,-429.898"/>
<polygon fill="orange" stroke="orange" points="755.916,-429.927 759.262,-439.98 762.915,-430.035 755.916,-429.927"/>
</g>
<!-- larvitbase -->
<g id="node6" class="node"><title>larvitbase</title>
<ellipse fill="none" stroke="#8b0000" cx="74.0934" cy="-2292" rx="44.6926" ry="18"/>
<text text-anchor="middle" x="74.0934" y="-2288.3" font-family="Times,serif" font-size="14.00">larvitbase</text>
</g>
<!-- larvitbase&#45;&gt;larvitadmingui -->
<g id="edge44" class="edge"><title>larvitbase&#45;&gt;larvitadmingui</title>
<path fill="none" stroke="#8b0000" d="M115.625,-2285.04C234.788,-2263.79 580.328,-2196.1 655.251,-2114 707.897,-2056.31 670.299,-2017.24 691.251,-1942 707.837,-1882.44 733.18,-1814.57 747.55,-1777.59"/>
<polygon fill="#8b0000" stroke="#8b0000" points="750.913,-1778.6 751.296,-1768.01 744.394,-1776.05 750.913,-1778.6"/>
</g>
<!-- larvitbase&#45;&gt;larvitbase_www -->
<g id="edge43" class="edge"><title>larvitbase&#45;&gt;larvitbase_www</title>
<path fill="none" stroke="#8b0000" d="M86.6042,-2309.7C104.147,-2334.87 140.219,-2379.93 184.187,-2398 272.388,-2434.24 549.379,-2419.12 683.822,-2409.15"/>
<polygon fill="#8b0000" stroke="#8b0000" points="684.323,-2412.63 694.033,-2408.39 683.799,-2405.65 684.323,-2412.63"/>
</g>
<!-- larvitbase&#45;&gt;larvitbase_api -->
<g id="edge45" class="edge"><title>larvitbase&#45;&gt;larvitbase_api</title>
<path fill="none" stroke="#8b0000" d="M119.019,-2291.51C180.874,-2290.83 294.243,-2289.57 367.374,-2288.76"/>
<polygon fill="#8b0000" stroke="#8b0000" points="367.456,-2292.26 377.416,-2288.65 367.378,-2285.26 367.456,-2292.26"/>
</g>
<!-- larvitreqparser -->
<g id="node7" class="node"><title>larvitreqparser</title>
<ellipse fill="none" stroke="#473c8b" cx="74.0934" cy="-2479" rx="61.99" ry="18"/>
<text text-anchor="middle" x="74.0934" y="-2475.3" font-family="Times,serif" font-size="14.00">larvitreqparser</text>
</g>
<!-- larvitreqparser&#45;&gt;larvitbase_www -->
<g id="edge80" class="edge"><title>larvitreqparser&#45;&gt;larvitbase_www</title>
<path fill="none" stroke="#473c8b" d="M135.846,-2479.17C242.144,-2478.44 468.356,-2472.27 655.251,-2436 673.473,-2432.46 692.981,-2426.75 710.079,-2421.07"/>
<polygon fill="#473c8b" stroke="#473c8b" points="711.503,-2424.28 719.839,-2417.74 709.245,-2417.66 711.503,-2424.28"/>
</g>
<!-- larvitreqparser&#45;&gt;larvitbase_api -->
<g id="edge81" class="edge"><title>larvitreqparser&#45;&gt;larvitbase_api</title>
<path fill="none" stroke="#473c8b" d="M112.726,-2464.78C163.229,-2445.1 255.073,-2407.18 328.474,-2365 356.465,-2348.92 386.168,-2327.32 407.29,-2311.09"/>
<polygon fill="#473c8b" stroke="#473c8b" points="409.467,-2313.83 415.224,-2304.94 405.177,-2308.3 409.467,-2313.83"/>
</g>
<!-- larvitdb&#45;&gt;larvitadmingui -->
<g id="edge31" class="edge"><title>larvitdb&#45;&gt;larvitadmingui</title>
<path fill="none" stroke="blue" d="M257.408,-1199.03C258.57,-1259.44 269.78,-1457.75 364.474,-1579 410.049,-1637.36 447.947,-1619.69 510.061,-1660 526.838,-1670.89 528.193,-1678.02 546.061,-1687 594.207,-1711.21 653.273,-1727.79 696.891,-1737.84"/>
<polygon fill="blue" stroke="blue" points="696.266,-1741.28 706.79,-1740.07 697.804,-1734.46 696.266,-1741.28"/>
</g>
<!-- larvitgeodata -->
<g id="node16" class="node"><title>larvitgeodata</title>
<ellipse fill="none" stroke="black" cx="759.495" cy="-1500" rx="56.59" ry="18"/>
<text text-anchor="middle" x="759.495" y="-1496.3" font-family="Times,serif" font-size="14.00">larvitgeodata</text>
</g>
<!-- larvitdb&#45;&gt;larvitgeodata -->
<g id="edge34" class="edge"><title>larvitdb&#45;&gt;larvitgeodata</title>
<path fill="none" stroke="blue" d="M259.12,-1199C264.836,-1246.24 287.097,-1374.46 364.474,-1437 460.027,-1514.23 612.295,-1514.69 696.835,-1507.68"/>
<polygon fill="blue" stroke="blue" points="697.401,-1511.15 707.051,-1506.77 696.78,-1504.17 697.401,-1511.15"/>
</g>
<!-- larvitdb&#45;&gt;larvitamsettings -->
<g id="edge39" class="edge"><title>larvitdb&#45;&gt;larvitamsettings</title>
<path fill="none" stroke="blue" d="M277.911,-1166.01C355.787,-1109.29 632.765,-907.57 726.909,-839.004"/>
<polygon fill="blue" stroke="blue" points="729.157,-841.697 735.18,-832.98 725.036,-836.038 729.157,-841.697"/>
</g>
<!-- larvitdb&#45;&gt;larvitorder -->
<g id="edge41" class="edge"><title>larvitdb&#45;&gt;larvitorder</title>
<path fill="none" stroke="blue" d="M292.173,-1174.12C378.768,-1157.01 604.116,-1112.5 706.51,-1092.27"/>
<polygon fill="blue" stroke="blue" points="707.482,-1095.64 716.614,-1090.27 706.125,-1088.78 707.482,-1095.64"/>
</g>
<!-- larvitdb&#45;&gt;larvitfiles -->
<g id="edge35" class="edge"><title>larvitdb&#45;&gt;larvitfiles</title>
<path fill="none" stroke="blue" d="M285.711,-1192.61C370.177,-1227.16 620.153,-1329.41 718.296,-1369.56"/>
<polygon fill="blue" stroke="blue" points="717.003,-1372.81 727.584,-1373.36 719.653,-1366.33 717.003,-1372.81"/>
</g>
<!-- larvitdb&#45;&gt;larvitcms -->
<g id="edge42" class="edge"><title>larvitdb&#45;&gt;larvitcms</title>
<path fill="none" stroke="blue" d="M257.813,-1163.01C260.256,-1107.92 275.05,-939.6 364.474,-846 412.148,-796.1 452.479,-830.04 510.061,-792 529.472,-779.177 528.848,-769.65 546.061,-754 607.621,-698.031 686.112,-639.754 728.342,-609.358"/>
<polygon fill="blue" stroke="blue" points="730.449,-612.154 736.537,-603.482 726.371,-606.465 730.449,-612.154"/>
</g>
<!-- larvitdb&#45;&gt;larvitdbmigration -->
<g id="edge36" class="edge"><title>larvitdb&#45;&gt;larvitdbmigration</title>
<path fill="none" stroke="blue" d="M270.488,-1197.84C301.476,-1237.5 379.214,-1336.98 416.16,-1384.27"/>
<polygon fill="blue" stroke="blue" points="413.44,-1386.47 422.355,-1392.2 418.956,-1382.16 413.44,-1386.47"/>
</g>
<!-- larvitdb&#45;&gt;larvituser -->
<g id="edge32" class="edge"><title>larvitdb&#45;&gt;larvituser</title>
<path fill="none" stroke="blue" d="M259.373,-1199.04C268.486,-1276.93 307.508,-1583.96 364.474,-1660 377.71,-1677.67 499.946,-1740.28 562.759,-1771.71"/>
<polygon fill="blue" stroke="blue" points="561.43,-1774.96 571.94,-1776.3 564.557,-1768.7 561.43,-1774.96"/>
</g>
<!-- larvitdb&#45;&gt;larvitimages -->
<g id="edge38" class="edge"><title>larvitdb&#45;&gt;larvitimages</title>
<path fill="none" stroke="blue" d="M258.896,-1162.82C264.706,-1102.58 288.764,-905.332 364.474,-764 410.185,-678.67 454.153,-681.026 510.061,-602 529.359,-574.723 522.899,-560.082 546.061,-536 550.2,-531.697 555.04,-527.764 560.087,-524.241"/>
<polygon fill="blue" stroke="blue" points="562.174,-527.06 568.69,-518.706 558.386,-521.173 562.174,-527.06"/>
</g>
<!-- larvitsession -->
<g id="node27" class="node"><title>larvitsession</title>
<ellipse fill="none" stroke="black" cx="600.656" cy="-1660" rx="54.6905" ry="18"/>
<text text-anchor="middle" x="600.656" y="-1656.3" font-family="Times,serif" font-size="14.00">larvitsession</text>
</g>
<!-- larvitdb&#45;&gt;larvitsession -->
<g id="edge37" class="edge"><title>larvitdb&#45;&gt;larvitsession</title>
<path fill="none" stroke="blue" d="M259.045,-1199.26C264.846,-1252.25 287.87,-1408.65 364.474,-1508 414.916,-1573.42 502.012,-1618.96 554.879,-1642.19"/>
<polygon fill="blue" stroke="blue" points="553.767,-1645.52 564.336,-1646.27 556.539,-1639.1 553.767,-1645.52"/>
</g>
<!-- larvitamsync -->
<g id="node28" class="node"><title>larvitamsync</title>
<ellipse fill="none" stroke="#000080" cx="437.268" cy="-873" rx="56.59" ry="18"/>
<text text-anchor="middle" x="437.268" y="-869.3" font-family="Times,serif" font-size="14.00">larvitamsync</text>
</g>
<!-- larvitdb&#45;&gt;larvitamsync -->
<g id="edge40" class="edge"><title>larvitdb&#45;&gt;larvitamsync</title>
<path fill="none" stroke="blue" d="M260.519,-1162.84C269.418,-1116.73 298.341,-993.302 364.474,-916 372.517,-906.599 383.153,-898.694 393.767,-892.331"/>
<polygon fill="blue" stroke="blue" points="395.622,-895.303 402.62,-887.349 392.189,-889.203 395.622,-895.303"/>
</g>
<!-- larvitdb&#45;&gt;larvitblog -->
<g id="edge33" class="edge"><title>larvitdb&#45;&gt;larvitblog</title>
<path fill="none" stroke="blue" d="M257.898,-1162.8C260.596,-1103.55 276.072,-913.066 364.474,-792 410.037,-729.602 461.84,-757.367 510.061,-697 538.761,-661.071 517.1,-635.718 546.061,-600 582.216,-555.409 607.534,-562.915 655.251,-531 680.318,-514.234 708.213,-494.441 728.682,-479.697"/>
<polygon fill="blue" stroke="blue" points="730.912,-482.404 736.97,-473.711 726.814,-476.729 730.912,-482.404"/>
</g>
<!-- larvitamintercom&#45;&gt;larvitlog -->
<g id="edge61" class="edge"><title>larvitamintercom&#45;&gt;larvitlog</title>
<path fill="none" stroke="#8b7500" d="M261.634,-824.954C273.757,-876.092 308.597,-1027.02 328.474,-1154 339.917,-1227.1 326.372,-1421.58 364.474,-1485 404.77,-1552.07 462.4,-1521.94 510.061,-1584 539.599,-1622.46 516.733,-1648.38 546.061,-1687 581.82,-1734.09 616.546,-1718.3 655.251,-1763 703.031,-1818.18 735.149,-1899.34 749.659,-1941.43"/>
<polygon fill="#8b7500" stroke="#8b7500" points="746.376,-1942.64 752.888,-1951 753.009,-1940.41 746.376,-1942.64"/>
</g>
<!-- larvitamintercom&#45;&gt;larvitproduct -->
<g id="edge64" class="edge"><title>larvitamintercom&#45;&gt;larvitproduct</title>
<path fill="none" stroke="#8b7500" d="M261.517,-824.972C273.333,-876.16 307.442,-1027.21 328.474,-1154 338.848,-1216.54 326.971,-1385.89 364.474,-1437 406.611,-1494.43 446.53,-1471.79 510.061,-1504 526.386,-1512.28 529.643,-1515.91 546.061,-1524 603.038,-1552.08 670.632,-1580.55 714.017,-1598.23"/>
<polygon fill="#8b7500" stroke="#8b7500" points="712.848,-1601.54 723.43,-1602.05 715.481,-1595.05 712.848,-1601.54"/>
</g>
<!-- larvitamintercom&#45;&gt;larvitamsettings -->
<g id="edge66" class="edge"><title>larvitamintercom&#45;&gt;larvitamsettings</title>
<path fill="none" stroke="#8b7500" d="M273.442,-789.283C292.796,-769.45 327.333,-738.459 364.474,-726 492.762,-682.965 651.359,-755.835 721.806,-794.411"/>
<polygon fill="#8b7500" stroke="#8b7500" points="720.311,-797.584 730.751,-799.386 723.713,-791.466 720.311,-797.584"/>
</g>
<!-- larvitamintercom&#45;&gt;larvitorder -->
<g id="edge65" class="edge"><title>larvitamintercom&#45;&gt;larvitorder</title>
<path fill="none" stroke="#8b7500" d="M327.9,-809.644C415.333,-816.597 563.905,-840.97 655.251,-925 696.552,-962.992 728.965,-1020.81 745.787,-1054.66"/>
<polygon fill="#8b7500" stroke="#8b7500" points="742.781,-1056.49 750.306,-1063.94 749.075,-1053.42 742.781,-1056.49"/>
</g>
<!-- larvitamintercom&#45;&gt;larvitfiles -->
<g id="edge62" class="edge"><title>larvitamintercom&#45;&gt;larvitfiles</title>
<path fill="none" stroke="#8b7500" d="M272.603,-824.644C344.891,-908.159 652.664,-1263.73 737.033,-1361.2"/>
<polygon fill="#8b7500" stroke="#8b7500" points="734.638,-1363.79 743.829,-1369.06 739.931,-1359.2 734.638,-1363.79"/>
</g>
<!-- larvitamintercom&#45;&gt;larvitcms -->
<g id="edge70" class="edge"><title>larvitamintercom&#45;&gt;larvitcms</title>
<path fill="none" stroke="#8b7500" d="M272.209,-789.222C291.406,-767.362 326.833,-730.522 364.474,-709 477.88,-644.158 629.911,-610.264 707.812,-596.153"/>
<polygon fill="#8b7500" stroke="#8b7500" points="708.612,-599.565 717.846,-594.37 707.388,-592.673 708.612,-599.565"/>
</g>
<!-- larvitamintercom&#45;&gt;larvitammail -->
<g id="edge71" class="edge"><title>larvitamintercom&#45;&gt;larvitammail</title>
<path fill="none" stroke="#8b7500" d="M260.071,-788.955C268.567,-737.154 297.993,-584.855 364.474,-478 466.057,-314.726 651.54,-170.776 726.146,-116.729"/>
<polygon fill="#8b7500" stroke="#8b7500" points="728.608,-119.269 734.681,-110.588 724.52,-113.587 728.608,-119.269"/>
</g>
<!-- larvitamintercom&#45;&gt;larvituser -->
<g id="edge68" class="edge"><title>larvitamintercom&#45;&gt;larvituser</title>
<path fill="none" stroke="#8b7500" d="M261.884,-825.298C274.507,-876.726 310.217,-1027.09 328.474,-1154 342.128,-1248.91 310.527,-1504.72 364.474,-1584 405.085,-1643.68 462.17,-1601.99 510.061,-1656 541.955,-1691.97 515.612,-1720.8 546.061,-1758 550.205,-1763.06 555.376,-1767.52 560.858,-1771.37"/>
<polygon fill="#8b7500" stroke="#8b7500" points="559.306,-1774.53 569.626,-1776.93 563.053,-1768.62 559.306,-1774.53"/>
</g>
<!-- larvitamintercom&#45;&gt;larvitimages -->
<g id="edge69" class="edge"><title>larvitamintercom&#45;&gt;larvitimages</title>
<path fill="none" stroke="#8b7500" d="M262.28,-789.035C273.727,-750.802 305.654,-660.886 364.474,-612 416.871,-568.452 449.939,-596.05 510.061,-564 527.948,-554.465 529.328,-547.439 546.061,-536 551.651,-532.178 557.705,-528.316 563.664,-524.66"/>
<polygon fill="#8b7500" stroke="#8b7500" points="565.501,-527.64 572.261,-519.481 561.889,-521.644 565.501,-527.64"/>
</g>
<!-- larvitamintercom&#45;&gt;larvitamsync -->
<g id="edge67" class="edge"><title>larvitamintercom&#45;&gt;larvitamsync</title>
<path fill="none" stroke="#8b7500" d="M297.487,-821.812C324.982,-831.953 361.513,-845.427 390.193,-856.006"/>
<polygon fill="#8b7500" stroke="#8b7500" points="389.001,-859.296 399.594,-859.473 391.423,-852.729 389.001,-859.296"/>
</g>
<!-- larvitamintercom&#45;&gt;larvitblog -->
<g id="edge63" class="edge"><title>larvitamintercom&#45;&gt;larvitblog</title>
<path fill="none" stroke="#8b7500" d="M260.532,-788.993C269.313,-744.504 297.707,-628.078 364.474,-560 455.666,-467.017 619.791,-455.052 704.56,-455.642"/>
<polygon fill="#8b7500" stroke="#8b7500" points="704.696,-459.144 714.741,-455.776 704.788,-452.144 704.696,-459.144"/>
</g>
<!-- larviturltopdf -->
<g id="node11" class="node"><title>larviturltopdf</title>
<ellipse fill="none" stroke="black" cx="759.495" cy="-2457" rx="57.6901" ry="18"/>
<text text-anchor="middle" x="759.495" y="-2453.3" font-family="Times,serif" font-size="14.00">larviturltopdf</text>
</g>
<!-- larvitsmpp -->
<g id="node12" class="node"><title>larvitsmpp</title>
<ellipse fill="none" stroke="black" cx="759.495" cy="-2511" rx="48.9926" ry="18"/>
<text text-anchor="middle" x="759.495" y="-2507.3" font-family="Times,serif" font-size="14.00">larvitsmpp</text>
</g>
<!-- larvitdbmigration&#45;&gt;larvitadmingui -->
<g id="edge46" class="edge"><title>larvitdbmigration&#45;&gt;larvitadmingui</title>
<path fill="none" stroke="green" d="M454.549,-1427.53C475.522,-1450.04 513.195,-1490.23 546.061,-1524 593.886,-1573.14 608.278,-1583.05 655.251,-1633 684.262,-1663.85 716.342,-1700.65 736.924,-1724.63"/>
<polygon fill="green" stroke="green" points="734.28,-1726.93 743.442,-1732.25 739.597,-1722.37 734.28,-1726.93"/>
</g>
<!-- larvitdbmigration&#45;&gt;larvitproduct -->
<g id="edge56" class="edge"><title>larvitdbmigration&#45;&gt;larvitproduct</title>
<path fill="none" stroke="green" d="M477.206,-1425.16C488.13,-1430 499.815,-1435.74 510.061,-1442 527.591,-1452.72 529.563,-1458.75 546.061,-1471 607.822,-1516.84 682.645,-1566.64 724.992,-1594.32"/>
<polygon fill="green" stroke="green" points="723.231,-1597.35 733.519,-1599.88 727.055,-1591.48 723.231,-1597.35"/>
</g>
<!-- larvitdbmigration&#45;&gt;larvitgeodata -->
<g id="edge50" class="edge"><title>larvitdbmigration&#45;&gt;larvitgeodata</title>
<path fill="none" stroke="green" d="M486.209,-1423.47C545.378,-1440.1 645.619,-1468.28 706.567,-1485.41"/>
<polygon fill="green" stroke="green" points="705.792,-1488.82 716.366,-1488.16 707.686,-1482.08 705.792,-1488.82"/>
</g>
<!-- larvitdbmigration&#45;&gt;larvitamsettings -->
<g id="edge54" class="edge"><title>larvitdbmigration&#45;&gt;larvitamsettings</title>
<path fill="none" stroke="green" d="M449.304,-1392.2C466.724,-1365.5 503.069,-1315.1 546.061,-1286 588.613,-1257.2 621.752,-1286.96 655.251,-1248 712.139,-1181.84 671.415,-1139.97 691.251,-1055 709.259,-977.863 736.064,-888.314 749.757,-843.922"/>
<polygon fill="green" stroke="green" points="753.169,-844.733 752.786,-834.145 746.483,-842.661 753.169,-844.733"/>
</g>
<!-- larvitdbmigration&#45;&gt;larvitorder -->
<g id="edge55" class="edge"><title>larvitdbmigration&#45;&gt;larvitorder</title>
<path fill="none" stroke="green" d="M460.118,-1392.63C481.308,-1376.26 514.759,-1351.68 546.061,-1334 592.219,-1307.93 616.762,-1322.45 655.251,-1286 708.102,-1235.95 738.213,-1152.92 751.043,-1109.85"/>
<polygon fill="green" stroke="green" points="754.461,-1110.63 753.868,-1100.05 747.735,-1108.69 754.461,-1110.63"/>
</g>
<!-- larvitdbmigration&#45;&gt;larvitfiles -->
<g id="edge51" class="edge"><title>larvitdbmigration&#45;&gt;larvitfiles</title>
<path fill="none" stroke="green" d="M510.211,-1408.29C552.509,-1406.88 606.991,-1404.38 655.251,-1400 672.407,-1398.44 691.087,-1396.11 707.782,-1393.79"/>
<polygon fill="green" stroke="green" points="708.481,-1397.22 717.89,-1392.35 707.497,-1390.29 708.481,-1397.22"/>
</g>
<!-- larvitdbmigration&#45;&gt;larvitcms -->
<g id="edge47" class="edge"><title>larvitdbmigration&#45;&gt;larvitcms</title>
<path fill="none" stroke="green" d="M446.871,-1391.98C477.597,-1327.25 583.877,-1100.01 655.251,-906 674.036,-854.94 674.62,-840.801 691.251,-789 711.232,-726.768 735.859,-654.127 749.065,-615.483"/>
<polygon fill="green" stroke="green" points="752.394,-616.564 752.32,-605.969 745.771,-614.298 752.394,-616.564"/>
</g>
<!-- larvitdbmigration&#45;&gt;larvituser -->
<g id="edge48" class="edge"><title>larvitdbmigration&#45;&gt;larvituser</title>
<path fill="none" stroke="green" d="M445.315,-1428.01C458.197,-1460.95 486.398,-1533.11 510.061,-1594 526.117,-1635.31 527.804,-1646.61 546.061,-1687 558.086,-1713.6 573.658,-1743.07 584.915,-1763.64"/>
<polygon fill="green" stroke="green" points="581.864,-1765.36 589.755,-1772.43 587.996,-1761.98 581.864,-1765.36"/>
</g>
<!-- larvitdbmigration&#45;&gt;larvitimages -->
<g id="edge53" class="edge"><title>larvitdbmigration&#45;&gt;larvitimages</title>
<path fill="none" stroke="green" d="M441.491,-1391.9C461.605,-1278.99 569.818,-671.505 594.599,-532.393"/>
<polygon fill="green" stroke="green" points="598.117,-532.6 596.425,-522.141 591.225,-531.372 598.117,-532.6"/>
</g>
<!-- larvitdbmigration&#45;&gt;larvitsession -->
<g id="edge52" class="edge"><title>larvitdbmigration&#45;&gt;larvitsession</title>
<path fill="none" stroke="green" d="M452.318,-1427.82C468.103,-1448.52 493.656,-1484.17 510.061,-1518 532.505,-1564.29 513.94,-1587.82 546.061,-1628 549.614,-1632.44 553.963,-1636.41 558.634,-1639.91"/>
<polygon fill="green" stroke="green" points="557.027,-1643.05 567.283,-1645.7 560.923,-1637.23 557.027,-1643.05"/>
</g>
<!-- larvitdbmigration&#45;&gt;larvitblog -->
<g id="edge49" class="edge"><title>larvitdbmigration&#45;&gt;larvitblog</title>
<path fill="none" stroke="green" d="M440.498,-1391.7C448.968,-1325.07 481.949,-1089.75 546.061,-906 582.021,-802.935 615.722,-787.749 655.251,-686 676.188,-632.11 667.182,-613.565 691.251,-561 704.165,-532.797 724.072,-503.44 738.88,-483.317"/>
<polygon fill="green" stroke="green" points="741.696,-485.395 744.878,-475.289 736.089,-481.205 741.696,-485.395"/>
</g>
<!-- larvituser&#45;&gt;larvituser_api -->
<g id="edge58" class="edge"><title>larvituser&#45;&gt;larvituser_api</title>
<path fill="none" stroke="#912cee" d="M608.316,-1807.79C622.11,-1844.03 655.518,-1928.65 691.251,-1996 706.176,-2024.13 725.972,-2054.68 740.215,-2075.73"/>
<polygon fill="#912cee" stroke="#912cee" points="737.421,-2077.84 745.949,-2084.13 743.203,-2073.9 737.421,-2077.84"/>
</g>
<!-- larvituser&#45;&gt;larvitadmingui -->
<g id="edge57" class="edge"><title>larvituser&#45;&gt;larvitadmingui</title>
<path fill="none" stroke="#912cee" d="M638.428,-1780.62C657.343,-1775.8 680.813,-1769.81 701.971,-1764.42"/>
<polygon fill="#912cee" stroke="#912cee" points="702.997,-1767.77 711.822,-1761.9 701.267,-1760.98 702.997,-1767.77"/>
</g>
<!-- larvitimages&#45;&gt;larvitblog -->
<g id="edge59" class="edge"><title>larvitimages&#45;&gt;larvitblog</title>
<path fill="none" stroke="black" d="M642.046,-492.154C663.788,-485.777 690.677,-477.891 713.136,-471.304"/>
<polygon fill="black" stroke="black" points="714.174,-474.647 722.785,-468.474 712.204,-467.93 714.174,-474.647"/>
</g>
<!-- larvitsession&#45;&gt;larvitadmingui -->
<g id="edge60" class="edge"><title>larvitsession&#45;&gt;larvitadmingui</title>
<path fill="none" stroke="black" d="M628.618,-1675.47C654.303,-1690.21 693.174,-1712.52 721.699,-1728.88"/>
<polygon fill="black" stroke="black" points="720.151,-1732.03 730.567,-1733.97 723.635,-1725.96 720.151,-1732.03"/>
</g>
<!-- larvitamsync&#45;&gt;larvitproduct -->
<g id="edge74" class="edge"><title>larvitamsync&#45;&gt;larvitproduct</title>
<path fill="none" stroke="#000080" d="M443.211,-890.976C465.236,-969.592 559.178,-1289.81 691.251,-1527 704.044,-1549.97 722.183,-1573.61 736.399,-1590.75"/>
<polygon fill="#000080" stroke="#000080" points="733.901,-1593.22 743.021,-1598.61 739.254,-1588.71 733.901,-1593.22"/>
</g>
<!-- larvitamsync&#45;&gt;larvitamsettings -->
<g id="edge76" class="edge"><title>larvitamsync&#45;&gt;larvitamsettings</title>
<path fill="none" stroke="#000080" d="M486.903,-864.343C541.929,-854.548 631.826,-838.547 692.995,-827.659"/>
<polygon fill="#000080" stroke="#000080" points="693.701,-831.088 702.933,-825.89 692.474,-824.197 693.701,-831.088"/>
</g>
<!-- larvitamsync&#45;&gt;larvitorder -->
<g id="edge75" class="edge"><title>larvitamsync&#45;&gt;larvitorder</title>
<path fill="none" stroke="#000080" d="M470.057,-887.745C513.486,-908.48 593.066,-948.602 655.251,-992 684.127,-1012.15 714.142,-1039.1 734.316,-1058.25"/>
<polygon fill="#000080" stroke="#000080" points="731.901,-1060.78 741.544,-1065.17 736.744,-1055.73 731.901,-1060.78"/>
</g>
<!-- larvitamsync&#45;&gt;larvitfiles -->
<g id="edge72" class="edge"><title>larvitamsync&#45;&gt;larvitfiles</title>
<path fill="none" stroke="#000080" d="M455.929,-890.255C477.063,-910.776 513.663,-945.91 546.061,-975 593.493,-1017.59 619.806,-1015.02 655.251,-1068 718.755,-1162.92 745.631,-1299.78 754.669,-1358.04"/>
<polygon fill="#000080" stroke="#000080" points="751.215,-1358.6 756.154,-1367.98 758.138,-1357.57 751.215,-1358.6"/>
</g>
<!-- larvitamsync&#45;&gt;larvitcms -->
<g id="edge79" class="edge"><title>larvitamsync&#45;&gt;larvitcms</title>
<path fill="none" stroke="#000080" d="M475.284,-859.54C521.621,-841.269 601.43,-804.951 655.251,-754 698.393,-713.159 730.807,-650.559 746.994,-615.05"/>
<polygon fill="#000080" stroke="#000080" points="750.246,-616.352 751.125,-605.794 743.853,-613.5 750.246,-616.352"/>
</g>
<!-- larvitamsync&#45;&gt;larvituser -->
<g id="edge77" class="edge"><title>larvitamsync&#45;&gt;larvituser</title>
<path fill="none" stroke="#000080" d="M440.955,-891.049C450.721,-956.854 485.07,-1190.14 510.061,-1383 527.545,-1517.93 506.006,-1556.97 546.061,-1687 554.604,-1714.73 570.486,-1743.84 582.752,-1764.02"/>
<polygon fill="#000080" stroke="#000080" points="579.845,-1765.97 588.094,-1772.62 585.792,-1762.28 579.845,-1765.97"/>
</g>
<!-- larvitamsync&#45;&gt;larvitimages -->
<g id="edge78" class="edge"><title>larvitamsync&#45;&gt;larvitimages</title>
<path fill="none" stroke="#000080" d="M446.052,-855.202C472.091,-795.667 556.277,-603.182 587.69,-531.359"/>
<polygon fill="#000080" stroke="#000080" points="590.961,-532.616 591.761,-522.051 584.547,-529.811 590.961,-532.616"/>
</g>
<!-- larvitamsync&#45;&gt;larvitblog -->
<g id="edge73" class="edge"><title>larvitamsync&#45;&gt;larvitblog</title>
<path fill="none" stroke="#000080" d="M454.398,-855.68C469.249,-839.53 491.693,-814.604 510.061,-792 600.692,-680.467 700.429,-540.67 740.436,-483.821"/>
<polygon fill="#000080" stroke="#000080" points="743.449,-485.621 746.334,-475.426 737.721,-481.597 743.449,-485.621"/>
</g>
<!-- larvitrouter&#45;&gt;larvitbase_www -->
<g id="edge82" class="edge"><title>larvitrouter&#45;&gt;larvitbase_www</title>
<path fill="none" stroke="#8b5a2b" d="M306.523,-2338.35C382.176,-2339.69 531.329,-2345.55 655.251,-2370 673.462,-2373.59 692.968,-2379.32 710.066,-2385"/>
<polygon fill="#8b5a2b" stroke="#8b5a2b" points="709.233,-2388.41 719.828,-2388.32 711.488,-2381.78 709.233,-2388.41"/>
</g>
<!-- larvitrouter&#45;&gt;larvitbase_api -->
<g id="edge83" class="edge"><title>larvitrouter&#45;&gt;larvitbase_api</title>
<path fill="none" stroke="#8b5a2b" d="M296.599,-2327.03C321.887,-2319.96 355.087,-2310.68 382.773,-2302.95"/>
<polygon fill="#8b5a2b" stroke="#8b5a2b" points="384.009,-2306.24 392.698,-2300.17 382.125,-2299.49 384.009,-2306.24"/>
</g>
<!-- larvitbase_api&#45;&gt;larvituser_api -->
<g id="edge85" class="edge"><title>larvitbase_api&#45;&gt;larvituser_api</title>
<path fill="none" stroke="#8b7765" d="M494.773,-2282.67C541.031,-2276.13 606.546,-2261.68 655.251,-2230 694.989,-2204.16 726.61,-2157.99 743.927,-2128.74"/>
<polygon fill="#8b7765" stroke="#8b7765" points="747.072,-2130.29 749.039,-2119.88 741.009,-2126.79 747.072,-2130.29"/>
</g>
<!-- larvitbase_api&#45;&gt;larvitlog -->
<g id="edge84" class="edge"><title>larvitbase_api&#45;&gt;larvitlog</title>
<path fill="none" stroke="#8b7765" d="M467.096,-2272.34C497.633,-2255.78 542.012,-2231.78 546.061,-2230 593.098,-2209.32 619.585,-2228.99 655.251,-2192 693.016,-2152.84 668.477,-2124.41 691.251,-2075 704.662,-2045.91 724.843,-2015.27 739.598,-1994.46"/>
<polygon fill="#8b7765" stroke="#8b7765" points="742.558,-1996.34 745.554,-1986.18 736.875,-1992.25 742.558,-1996.34"/>
</g>
</g>
</svg>
