<?xml version="1.0" encoding="UTF-8" standalone="no"?>
<!DOCTYPE svg PUBLIC "-//W3C//DTD SVG 1.1//EN"
 "http://www.w3.org/Graphics/SVG/1.1/DTD/svg11.dtd">
<!-- Generated by graphviz version 2.38.0 (20140413.2041)
 -->
<!-- Title: larvitlibs Pages: 1 -->
<svg width="600pt" height="944pt"
 viewBox="0.00 0.00 599.56 943.65" xmlns="http://www.w3.org/2000/svg" xmlns:xlink="http://www.w3.org/1999/xlink">
<g id="graph0" class="graph" transform="scale(1 1) rotate(0) translate(4 939.654)">
<title>larvitlibs</title>
<polygon fill="white" stroke="none" points="-4,4 -4,-939.654 595.557,-939.654 595.557,4 -4,4"/>
<!-- larvitdb -->
<g id="node1" class="node"><title>larvitdb</title>
<ellipse fill="none" stroke="blue" cx="40.9464" cy="-626.967" rx="40.8928" ry="18"/>
<text text-anchor="middle" x="40.9464" y="-623.267" font-family="Times,serif" font-size="14.00">!larvitdb</text>
</g>
<!-- larvitadmingui -->
<g id="node3" class="node"><title>larvitadmingui</title>
<ellipse fill="none" stroke="black" cx="523.963" cy="-780.967" rx="65.7887" ry="18"/>
<text text-anchor="middle" x="523.963" y="-777.267" font-family="Times,serif" font-size="14.00">!larvitadmingui</text>
</g>
<!-- larvitdb&#45;&gt;larvitadmingui -->
<g id="edge1" class="edge"><title>larvitdb&#45;&gt;larvitadmingui</title>
<path fill="none" stroke="blue" d="M41.8563,-644.983C42.7182,-688.69 51.6156,-800.525 117.893,-851.967 224.205,-934.483 293.764,-911.6 420.369,-865.967 424.869,-864.345 466.403,-829.318 495.223,-804.74"/>
<polygon fill="blue" stroke="blue" points="497.642,-807.277 502.973,-798.122 493.096,-801.954 497.642,-807.277"/>
</g>
<!-- larvitgeodata -->
<g id="node5" class="node"><title>larvitgeodata</title>
<ellipse fill="none" stroke="black" cx="523.963" cy="-864.967" rx="59.5901" ry="18"/>
<text text-anchor="middle" x="523.963" y="-861.267" font-family="Times,serif" font-size="14.00">!larvitgeodata</text>
</g>
<!-- larvitdb&#45;&gt;larvitgeodata -->
<g id="edge4" class="edge"><title>larvitdb&#45;&gt;larvitgeodata</title>
<path fill="none" stroke="blue" d="M44.3335,-645.084C51.9533,-699.858 77.5842,-861.873 117.893,-892.967 225.968,-976.335 402.29,-917.571 481.791,-883.989"/>
<polygon fill="blue" stroke="blue" points="483.193,-887.196 490.996,-880.03 480.427,-880.766 483.193,-887.196"/>
</g>
<!-- larvitamsettings -->
<g id="node6" class="node"><title>larvitamsettings</title>
<ellipse fill="none" stroke="black" cx="523.963" cy="-569.967" rx="67.6881" ry="18"/>
<text text-anchor="middle" x="523.963" y="-566.267" font-family="Times,serif" font-size="14.00">larvitamsettings</text>
</g>
<!-- larvitdb&#45;&gt;larvitamsettings -->
<g id="edge9" class="edge"><title>larvitdb&#45;&gt;larvitamsettings</title>
<path fill="none" stroke="blue" d="M64.8776,-641.855C127.914,-680.722 306.671,-776.877 420.369,-696.967 459.016,-669.805 423.636,-631.023 456.369,-596.967 459.706,-593.495 463.55,-590.457 467.672,-587.8"/>
<polygon fill="blue" stroke="blue" points="469.45,-590.816 476.453,-582.865 466.02,-584.714 469.45,-590.816"/>
</g>
<!-- larvitorder -->
<g id="node7" class="node"><title>larvitorder</title>
<ellipse fill="none" stroke="black" cx="523.963" cy="-623.967" rx="48.1917" ry="18"/>
<text text-anchor="middle" x="523.963" y="-620.267" font-family="Times,serif" font-size="14.00">larvitorder</text>
</g>
<!-- larvitdb&#45;&gt;larvitorder -->
<g id="edge11" class="edge"><title>larvitdb&#45;&gt;larvitorder</title>
<path fill="none" stroke="blue" d="M44.0635,-645.004C49.3325,-681.088 66.5473,-762.033 117.893,-800.967 225.408,-882.493 315.836,-912.283 420.369,-826.967 482.225,-776.483 405.32,-712.357 456.369,-650.967 460.871,-645.553 466.624,-641.214 472.859,-637.739"/>
<polygon fill="blue" stroke="blue" points="474.741,-640.718 482.247,-633.241 471.717,-634.405 474.741,-640.718"/>
</g>
<!-- larvitfiles -->
<g id="node8" class="node"><title>larvitfiles</title>
<ellipse fill="none" stroke="black" cx="523.963" cy="-433.967" rx="44.393" ry="18"/>
<text text-anchor="middle" x="523.963" y="-430.267" font-family="Times,serif" font-size="14.00">larvitfiles</text>
</g>
<!-- larvitdb&#45;&gt;larvitfiles -->
<g id="edge5" class="edge"><title>larvitdb&#45;&gt;larvitfiles</title>
<path fill="none" stroke="blue" d="M60.1188,-610.918C74.9892,-598.273 96.9173,-580.711 117.893,-567.967 195.999,-520.511 218.041,-511.06 304.679,-481.967 360.815,-463.116 427.596,-449.682 472.38,-441.906"/>
<polygon fill="blue" stroke="blue" points="473.161,-445.324 482.43,-440.192 471.983,-438.423 473.161,-445.324"/>
</g>
<!-- larvitcms -->
<g id="node9" class="node"><title>larvitcms</title>
<ellipse fill="none" stroke="black" cx="523.963" cy="-205.967" rx="44.393" ry="18"/>
<text text-anchor="middle" x="523.963" y="-202.267" font-family="Times,serif" font-size="14.00">larvitcms</text>
</g>
<!-- larvitdb&#45;&gt;larvitcms -->
<g id="edge12" class="edge"><title>larvitdb&#45;&gt;larvitcms</title>
<path fill="none" stroke="blue" d="M42.2944,-608.906C44.1743,-530.236 55.512,-218.267 117.893,-147.967 208.478,-45.8806 303.656,-24.2172 420.369,-94.9667 449.948,-112.897 432.931,-138.529 456.369,-163.967 464.763,-173.077 475.559,-181 486.005,-187.435"/>
<polygon fill="blue" stroke="blue" points="484.238,-190.456 494.637,-192.484 487.772,-184.414 484.238,-190.456"/>
</g>
<!-- larvitdbmigration -->
<g id="node10" class="node"><title>larvitdbmigration</title>
<ellipse fill="none" stroke="green" cx="193.286" cy="-594.967" rx="75.2868" ry="18"/>
<text text-anchor="middle" x="193.286" y="-591.267" font-family="Times,serif" font-size="14.00">!larvitdbmigration</text>
</g>
<!-- larvitdb&#45;&gt;larvitdbmigration -->
<g id="edge6" class="edge"><title>larvitdb&#45;&gt;larvitdbmigration</title>
<path fill="none" stroke="blue" d="M78.3394,-619.22C92.8044,-616.141 109.907,-612.501 126.404,-608.99"/>
<polygon fill="blue" stroke="blue" points="127.517,-612.331 136.569,-606.826 126.059,-605.485 127.517,-612.331"/>
</g>
<!-- larvituser -->
<g id="node11" class="node"><title>larvituser</title>
<ellipse fill="none" stroke="#912cee" cx="362.524" cy="-669.967" rx="46.5926" ry="18"/>
<text text-anchor="middle" x="362.524" y="-666.267" font-family="Times,serif" font-size="14.00">!larvituser</text>
</g>
<!-- larvitdb&#45;&gt;larvituser -->
<g id="edge2" class="edge"><title>larvitdb&#45;&gt;larvituser</title>
<path fill="none" stroke="blue" d="M80.4949,-632.153C137.303,-639.797 243.708,-654.114 308.039,-662.77"/>
<polygon fill="blue" stroke="blue" points="307.611,-666.244 317.988,-664.109 308.545,-659.306 307.611,-666.244"/>
</g>
<!-- larvitimages -->
<g id="node12" class="node"><title>larvitimages</title>
<ellipse fill="none" stroke="black" cx="362.524" cy="-121.967" rx="54.6905" ry="18"/>
<text text-anchor="middle" x="362.524" y="-118.267" font-family="Times,serif" font-size="14.00">larvitimages</text>
</g>
<!-- larvitdb&#45;&gt;larvitimages -->
<g id="edge8" class="edge"><title>larvitdb&#45;&gt;larvitimages</title>
<path fill="none" stroke="blue" d="M43.6478,-608.63C50.1458,-541.882 75.2022,-312.756 117.893,-254.967 165.298,-190.795 253.285,-153.999 309.537,-136.009"/>
<polygon fill="blue" stroke="blue" points="310.8,-139.282 319.31,-132.97 308.722,-132.597 310.8,-139.282"/>
</g>
<!-- larvitsession -->
<g id="node13" class="node"><title>larvitsession</title>
<ellipse fill="none" stroke="black" cx="362.524" cy="-799.967" rx="57.6901" ry="18"/>
<text text-anchor="middle" x="362.524" y="-796.267" font-family="Times,serif" font-size="14.00">!larvitsession</text>
</g>
<!-- larvitdb&#45;&gt;larvitsession -->
<g id="edge7" class="edge"><title>larvitdb&#45;&gt;larvitsession</title>
<path fill="none" stroke="blue" d="M46.0663,-645.246C54.0728,-676.161 74.8592,-738.294 117.893,-767.967 170.574,-804.292 245.163,-809.035 297.901,-806.735"/>
<polygon fill="blue" stroke="blue" points="298.345,-810.216 308.144,-806.188 297.972,-803.226 298.345,-810.216"/>
</g>
<!-- larvitamsync -->
<g id="node14" class="node"><title>larvitamsync</title>
<ellipse fill="none" stroke="#000080" cx="193.286" cy="-281.967" rx="59.5901" ry="18"/>
<text text-anchor="middle" x="193.286" y="-278.267" font-family="Times,serif" font-size="14.00">!larvitamsync</text>
</g>
<!-- larvitdb&#45;&gt;larvitamsync -->
<g id="edge10" class="edge"><title>larvitdb&#45;&gt;larvitamsync</title>
<path fill="none" stroke="blue" d="M47.5189,-609.181C59.0799,-572.942 87.17,-488.207 117.893,-419.967 135.784,-380.227 160.398,-336.212 176.326,-308.816"/>
<polygon fill="blue" stroke="blue" points="179.541,-310.252 181.572,-299.853 173.5,-306.715 179.541,-310.252"/>
</g>
<!-- larvitblog -->
<g id="node15" class="node"><title>larvitblog</title>
<ellipse fill="none" stroke="black" cx="523.963" cy="-136.967" rx="44.6926" ry="18"/>
<text text-anchor="middle" x="523.963" y="-133.267" font-family="Times,serif" font-size="14.00">larvitblog</text>
</g>
<!-- larvitdb&#45;&gt;larvitblog -->
<g id="edge3" class="edge"><title>larvitdb&#45;&gt;larvitblog</title>
<path fill="none" stroke="blue" d="M42.9417,-608.887C48.268,-515.405 74.7801,-89.7594 117.893,-51.9667 218.984,36.6505 293.899,-6.38238 420.369,-51.9667 453.557,-63.9286 483.614,-91.8071 502.492,-112.391"/>
<polygon fill="blue" stroke="blue" points="499.896,-114.739 509.163,-119.875 505.122,-110.081 499.896,-114.739"/>
</g>
<!-- larvituser_api -->
<g id="node2" class="node"><title>larvituser_api</title>
<ellipse fill="none" stroke="black" cx="523.963" cy="-677.967" rx="59.2899" ry="18"/>
<text text-anchor="middle" x="523.963" y="-674.267" font-family="Times,serif" font-size="14.00">larvituser_api</text>
</g>
<!-- larvitproduct -->
<g id="node4" class="node"><title>larvitproduct</title>
<ellipse fill="none" stroke="black" cx="523.963" cy="-319.967" rx="55.7903" ry="18"/>
<text text-anchor="middle" x="523.963" y="-316.267" font-family="Times,serif" font-size="14.00">larvitproduct</text>
</g>
<!-- larvitdbmigration&#45;&gt;larvitadmingui -->
<g id="edge13" class="edge"><title>larvitdbmigration&#45;&gt;larvitadmingui</title>
<path fill="none" stroke="green" d="M209.487,-612.659C229.412,-634.92 266.351,-673.117 304.679,-696.967 355.588,-728.645 420.394,-751.727 466.126,-765.589"/>
<polygon fill="green" stroke="green" points="465.289,-768.991 475.872,-768.491 467.287,-762.282 465.289,-768.991"/>
</g>
<!-- larvitdbmigration&#45;&gt;larvitproduct -->
<g id="edge23" class="edge"><title>larvitdbmigration&#45;&gt;larvitproduct</title>
<path fill="none" stroke="green" d="M209.945,-577.273C230.652,-554.277 268.732,-513.353 304.679,-481.967 367.038,-427.52 446.427,-371.626 490.229,-341.833"/>
<polygon fill="green" stroke="green" points="492.441,-344.562 498.758,-336.056 488.516,-338.766 492.441,-344.562"/>
</g>
<!-- larvitdbmigration&#45;&gt;larvitgeodata -->
<g id="edge17" class="edge"><title>larvitdbmigration&#45;&gt;larvitgeodata</title>
<path fill="none" stroke="green" d="M197.13,-612.983C205.139,-657.287 232.213,-771.933 304.679,-826.967 347.489,-859.478 408.606,-867.818 455.287,-868.688"/>
<polygon fill="green" stroke="green" points="455.29,-872.188 465.317,-868.766 455.344,-865.188 455.29,-872.188"/>
</g>
<!-- larvitdbmigration&#45;&gt;larvitamsettings -->
<g id="edge21" class="edge"><title>larvitdbmigration&#45;&gt;larvitamsettings</title>
<path fill="none" stroke="green" d="M265.604,-589.542C319.726,-585.425 393.917,-579.782 448.74,-575.612"/>
<polygon fill="green" stroke="green" points="449.036,-579.1 458.742,-574.851 448.505,-572.12 449.036,-579.1"/>
</g>
<!-- larvitdbmigration&#45;&gt;larvitorder -->
<g id="edge22" class="edge"><title>larvitdbmigration&#45;&gt;larvitorder</title>
<path fill="none" stroke="green" d="M264.392,-601.152C324.738,-606.477 410.686,-614.06 466.643,-618.997"/>
<polygon fill="green" stroke="green" points="466.46,-622.495 476.729,-619.887 467.075,-615.522 466.46,-622.495"/>
</g>
<!-- larvitdbmigration&#45;&gt;larvitfiles -->
<g id="edge18" class="edge"><title>larvitdbmigration&#45;&gt;larvitfiles</title>
<path fill="none" stroke="green" d="M227.306,-578.792C288.904,-548.619 420.938,-483.943 485.654,-452.242"/>
<polygon fill="green" stroke="green" points="487.257,-455.355 494.698,-447.812 484.177,-449.068 487.257,-455.355"/>
</g>
<!-- larvitdbmigration&#45;&gt;larvitcms -->
<g id="edge14" class="edge"><title>larvitdbmigration&#45;&gt;larvitcms</title>
<path fill="none" stroke="green" d="M199.872,-576.812C212.61,-538.055 247.231,-446.259 304.679,-390.967 345.978,-351.218 375.672,-369.851 420.369,-333.967 430.324,-325.975 476.664,-266.385 503.536,-231.397"/>
<polygon fill="green" stroke="green" points="506.607,-233.143 509.915,-223.078 501.052,-228.884 506.607,-233.143"/>
</g>
<!-- larvitdbmigration&#45;&gt;larvituser -->
<g id="edge15" class="edge"><title>larvitdbmigration&#45;&gt;larvituser</title>
<path fill="none" stroke="green" d="M229.753,-610.872C256.77,-622.988 293.961,-639.667 321.944,-652.216"/>
<polygon fill="green" stroke="green" points="320.87,-655.57 331.426,-656.469 323.734,-649.183 320.87,-655.57"/>
</g>
<!-- larvitdbmigration&#45;&gt;larvitimages -->
<g id="edge20" class="edge"><title>larvitdbmigration&#45;&gt;larvitimages</title>
<path fill="none" stroke="green" d="M200.638,-577.002C226.12,-504.931 321.038,-236.474 351.82,-149.414"/>
<polygon fill="green" stroke="green" points="355.132,-150.544 355.166,-139.949 348.533,-148.21 355.132,-150.544"/>
</g>
<!-- larvitdbmigration&#45;&gt;larvitsession -->
<g id="edge19" class="edge"><title>larvitdbmigration&#45;&gt;larvitsession</title>
<path fill="none" stroke="green" d="M208.835,-612.8C238.561,-649.239 306.352,-732.337 340.721,-774.466"/>
<polygon fill="green" stroke="green" points="338.095,-776.784 347.128,-782.32 343.519,-772.359 338.095,-776.784"/>
</g>
<!-- larvitdbmigration&#45;&gt;larvitblog -->
<g id="edge16" class="edge"><title>larvitdbmigration&#45;&gt;larvitblog</title>
<path fill="none" stroke="green" d="M199.377,-576.709C212.258,-532.447 249.117,-416.958 304.679,-333.967 345.362,-273.199 369.51,-269.514 420.369,-216.967 436.549,-200.25 438.39,-193.731 456.369,-178.967 466.107,-170.97 477.467,-163.286 488.019,-156.726"/>
<polygon fill="green" stroke="green" points="489.903,-159.677 496.638,-151.499 486.273,-153.692 489.903,-159.677"/>
</g>
<!-- larvituser&#45;&gt;larvituser_api -->
<g id="edge25" class="edge"><title>larvituser&#45;&gt;larvituser_api</title>
<path fill="none" stroke="#912cee" d="M409.213,-672.259C423.555,-672.979 439.706,-673.789 455.236,-674.568"/>
<polygon fill="#912cee" stroke="#912cee" points="455.163,-678.069 465.326,-675.075 455.514,-671.078 455.163,-678.069"/>
</g>
<!-- larvituser&#45;&gt;larvitadmingui -->
<g id="edge24" class="edge"><title>larvituser&#45;&gt;larvitadmingui</title>
<path fill="none" stroke="#912cee" d="M390.89,-684.331C400.398,-689.593 411.018,-695.781 420.369,-701.967 446.405,-719.191 474.383,-740.974 494.535,-757.303"/>
<polygon fill="#912cee" stroke="#912cee" points="492.433,-760.104 502.393,-763.715 496.858,-754.681 492.433,-760.104"/>
</g>
<!-- larvitimages&#45;&gt;larvitblog -->
<g id="edge26" class="edge"><title>larvitimages&#45;&gt;larvitblog</title>
<path fill="none" stroke="black" d="M415.289,-126.837C432.848,-128.489 452.478,-130.335 470.119,-131.995"/>
<polygon fill="black" stroke="black" points="469.962,-135.496 480.245,-132.948 470.617,-128.526 469.962,-135.496"/>
</g>
<!-- larvitsession&#45;&gt;larvitadmingui -->
<g id="edge27" class="edge"><title>larvitsession&#45;&gt;larvitadmingui</title>
<path fill="none" stroke="black" d="M417.059,-793.587C428.72,-792.197 441.223,-790.707 453.404,-789.256"/>
<polygon fill="black" stroke="black" points="454.019,-792.707 463.535,-788.049 453.191,-785.757 454.019,-792.707"/>
</g>
<!-- larvitamsync&#45;&gt;larvitproduct -->
<g id="edge30" class="edge"><title>larvitamsync&#45;&gt;larvitproduct</title>
<path fill="none" stroke="#000080" d="M241.307,-271.117C287.525,-262.299 359.745,-253.48 420.369,-267.967 445.184,-273.896 470.784,-286.86 490.204,-298.359"/>
<polygon fill="#000080" stroke="#000080" points="488.577,-301.466 498.939,-303.678 492.218,-295.487 488.577,-301.466"/>
</g>
<!-- larvitamsync&#45;&gt;larvitamsettings -->
<g id="edge32" class="edge"><title>larvitamsync&#45;&gt;larvitamsettings</title>
<path fill="none" stroke="#000080" d="M213.862,-299.12C269.79,-348.126 430.417,-488.874 495.291,-545.72"/>
<polygon fill="#000080" stroke="#000080" points="493.246,-548.581 503.074,-552.539 497.86,-543.316 493.246,-548.581"/>
</g>
<!-- larvitamsync&#45;&gt;larvitorder -->
<g id="edge31" class="edge"><title>larvitamsync&#45;&gt;larvitorder</title>
<path fill="none" stroke="#000080" d="M204.139,-300.052C234.353,-353.8 331.29,-513.977 456.369,-596.967 462.874,-601.283 470.179,-605.102 477.502,-608.41"/>
<polygon fill="#000080" stroke="#000080" points="476.158,-611.642 486.731,-612.325 478.892,-605.197 476.158,-611.642"/>
</g>
<!-- larvitamsync&#45;&gt;larvitfiles -->
<g id="edge28" class="edge"><title>larvitamsync&#45;&gt;larvitfiles</title>
<path fill="none" stroke="#000080" d="M226.7,-296.957C287.828,-325.226 419.832,-386.272 484.995,-416.408"/>
<polygon fill="#000080" stroke="#000080" points="483.562,-419.602 494.108,-420.622 486.501,-413.248 483.562,-419.602"/>
</g>
<!-- larvitamsync&#45;&gt;larvitcms -->
<g id="edge35" class="edge"><title>larvitamsync&#45;&gt;larvitcms</title>
<path fill="none" stroke="#000080" d="M241.377,-271.078C303.591,-256.692 412.581,-231.49 475.152,-217.022"/>
<polygon fill="#000080" stroke="#000080" points="476.2,-220.372 485.154,-214.709 474.623,-213.552 476.2,-220.372"/>
</g>
<!-- larvitamsync&#45;&gt;larvituser -->
<g id="edge33" class="edge"><title>larvitamsync&#45;&gt;larvituser</title>
<path fill="none" stroke="#000080" d="M202.017,-299.903C228.822,-362.091 317.878,-568.705 349.916,-643.034"/>
<polygon fill="#000080" stroke="#000080" points="346.703,-644.423 353.875,-652.221 353.131,-641.652 346.703,-644.423"/>
</g>
<!-- larvitamsync&#45;&gt;larvitimages -->
<g id="edge34" class="edge"><title>larvitamsync&#45;&gt;larvitimages</title>
<path fill="none" stroke="#000080" d="M208.849,-264.412C236.245,-231.486 293.694,-162.958 304.679,-153.967 309.979,-149.629 315.946,-145.555 321.97,-141.863"/>
<polygon fill="#000080" stroke="#000080" points="323.887,-144.797 330.766,-136.739 320.364,-138.748 323.887,-144.797"/>
</g>
<!-- larvitamsync&#45;&gt;larvitblog -->
<g id="edge29" class="edge"><title>larvitamsync&#45;&gt;larvitblog</title>
<path fill="none" stroke="#000080" d="M223.996,-266.446C246.061,-255.095 276.999,-239.549 304.679,-226.967 365.392,-199.369 437.099,-170.499 481.305,-153.12"/>
<polygon fill="#000080" stroke="#000080" points="482.814,-156.288 490.846,-149.38 480.259,-149.771 482.814,-156.288"/>
</g>
</g>
</svg>
