<?xml version="1.0" encoding="UTF-8" standalone="no"?>
<!DOCTYPE svg PUBLIC "-//W3C//DTD SVG 1.1//EN"
 "http://www.w3.org/Graphics/SVG/1.1/DTD/svg11.dtd">
<!-- Generated by graphviz version 2.38.0 (20140413.2041)
 -->
<!-- Title: larvitlibs Pages: 1 -->
<svg width="836pt" height="2487pt"
 viewBox="0.00 0.00 835.74 2487.00" xmlns="http://www.w3.org/2000/svg" xmlns:xlink="http://www.w3.org/1999/xlink">
<g id="graph0" class="graph" transform="scale(1 1) rotate(0) translate(4 2483)">
<title>larvitlibs</title>
<polygon fill="white" stroke="none" points="-4,4 -4,-2483 831.739,-2483 831.739,4 -4,4"/>
<!-- larvitfs -->
<g id="node1" class="node"><title>larvitfs</title>
<ellipse fill="none" stroke="red" cx="74.0934" cy="-2040" rx="35.9954" ry="18"/>
<text text-anchor="middle" x="74.0934" y="-2036.3" font-family="Times,serif" font-size="14.00">larvitfs</text>
</g>
<!-- larvitadmingui -->
<g id="node13" class="node"><title>larvitadmingui</title>
<ellipse fill="none" stroke="black" cx="759.495" cy="-1669" rx="63.0888" ry="18"/>
<text text-anchor="middle" x="759.495" y="-1665.3" font-family="Times,serif" font-size="14.00">larvitadmingui</text>
</g>
<!-- larvitfs&#45;&gt;larvitadmingui -->
<g id="edge7" class="edge"><title>larvitfs&#45;&gt;larvitadmingui</title>
<path fill="none" stroke="red" d="M110,-2038.56C222.143,-2033.26 570.836,-2011.43 655.251,-1942 665.256,-1933.77 725.16,-1764.48 748.857,-1696.7"/>
<polygon fill="red" stroke="red" points="752.217,-1697.69 752.208,-1687.1 745.608,-1695.39 752.217,-1697.69"/>
</g>
<!-- larvitproduct -->
<g id="node15" class="node"><title>larvitproduct</title>
<ellipse fill="none" stroke="black" cx="759.495" cy="-1577" rx="55.7903" ry="18"/>
<text text-anchor="middle" x="759.495" y="-1573.3" font-family="Times,serif" font-size="14.00">larvitproduct</text>
</g>
<!-- larvitfs&#45;&gt;larvitproduct -->
<g id="edge8" class="edge"><title>larvitfs&#45;&gt;larvitproduct</title>
<path fill="none" stroke="red" d="M107.278,-2032.94C217.942,-2008 580.127,-1920.9 655.251,-1833 711.375,-1767.33 650.267,-1718.04 691.251,-1642 699.991,-1625.78 714.192,-1611.17 727.296,-1599.93"/>
<polygon fill="red" stroke="red" points="729.757,-1602.44 735.255,-1593.38 725.309,-1597.04 729.757,-1602.44"/>
</g>
<!-- larvitfiles -->
<g id="node19" class="node"><title>larvitfiles</title>
<ellipse fill="none" stroke="black" cx="759.495" cy="-1402" rx="44.393" ry="18"/>
<text text-anchor="middle" x="759.495" y="-1398.3" font-family="Times,serif" font-size="14.00">larvitfiles</text>
</g>
<!-- larvitfs&#45;&gt;larvitfiles -->
<g id="edge4" class="edge"><title>larvitfs&#45;&gt;larvitfiles</title>
<path fill="none" stroke="red" d="M96.821,-2025.86C118.543,-2011.96 153.097,-1990.5 184.187,-1974 235.09,-1946.99 620.118,-1802.68 655.251,-1757 712.184,-1682.98 663.715,-1639.23 691.251,-1550 704.859,-1505.9 728.518,-1457.76 743.836,-1428.73"/>
<polygon fill="red" stroke="red" points="747.061,-1430.12 748.684,-1419.65 740.886,-1426.82 747.061,-1430.12"/>
</g>
<!-- larvitcms -->
<g id="node20" class="node"><title>larvitcms</title>
<ellipse fill="none" stroke="black" cx="759.495" cy="-490" rx="44.393" ry="18"/>
<text text-anchor="middle" x="759.495" y="-486.3" font-family="Times,serif" font-size="14.00">larvitcms</text>
</g>
<!-- larvitfs&#45;&gt;larvitcms -->
<g id="edge3" class="edge"><title>larvitfs&#45;&gt;larvitcms</title>
<path fill="none" stroke="red" d="M79.3438,-2022.02C92.2996,-1966.38 131.429,-1791.9 148.187,-1645 168.709,-1465.1 121.867,-1001 184.187,-831 259.001,-626.914 336.65,-560.266 546.061,-502 598.94,-487.287 662.002,-485.611 705.611,-486.794"/>
<polygon fill="red" stroke="red" points="705.599,-490.296 715.709,-487.129 705.831,-483.3 705.599,-490.296"/>
</g>
<!-- larvitbase_www -->
<g id="node21" class="node"><title>larvitbase_www</title>
<ellipse fill="none" stroke="black" cx="759.495" cy="-2353" rx="68.4888" ry="18"/>
<text text-anchor="middle" x="759.495" y="-2349.3" font-family="Times,serif" font-size="14.00">larvitbase_www</text>
</g>
<!-- larvitfs&#45;&gt;larvitbase_www -->
<g id="edge1" class="edge"><title>larvitfs&#45;&gt;larvitbase_www</title>
<path fill="none" stroke="red" d="M79.4913,-2057.92C90.1492,-2097.37 121.241,-2191.92 184.187,-2239 333.882,-2350.95 564.854,-2360.89 683.096,-2357.61"/>
<polygon fill="red" stroke="red" points="683.259,-2361.1 693.143,-2357.29 683.037,-2354.11 683.259,-2361.1"/>
</g>
<!-- larvitcss -->
<g id="node23" class="node"><title>larvitcss</title>
<ellipse fill="none" stroke="black" cx="256.33" cy="-2082" rx="40.0939" ry="18"/>
<text text-anchor="middle" x="256.33" y="-2078.3" font-family="Times,serif" font-size="14.00">larvitcss</text>
</g>
<!-- larvitfs&#45;&gt;larvitcss -->
<g id="edge5" class="edge"><title>larvitfs&#45;&gt;larvitcss</title>
<path fill="none" stroke="red" d="M106.901,-2047.41C135.535,-2054.08 177.933,-2063.96 210.092,-2071.46"/>
<polygon fill="red" stroke="red" points="209.609,-2074.94 220.143,-2073.8 211.198,-2068.12 209.609,-2074.94"/>
</g>
<!-- larvitrouter -->
<g id="node29" class="node"><title>larvitrouter</title>
<ellipse fill="none" stroke="#8b5a2b" cx="256.33" cy="-2212" rx="50.0912" ry="18"/>
<text text-anchor="middle" x="256.33" y="-2208.3" font-family="Times,serif" font-size="14.00">larvitrouter</text>
</g>
<!-- larvitfs&#45;&gt;larvitrouter -->
<g id="edge6" class="edge"><title>larvitfs&#45;&gt;larvitrouter</title>
<path fill="none" stroke="red" d="M84.7209,-2057.27C101.548,-2086.11 138.871,-2144.41 184.187,-2180 191.934,-2186.08 201.022,-2191.29 210.063,-2195.64"/>
<polygon fill="red" stroke="red" points="208.855,-2198.93 219.41,-2199.85 211.73,-2192.55 208.855,-2198.93"/>
</g>
<!-- larvitbase_api -->
<g id="node30" class="node"><title>larvitbase_api</title>
<ellipse fill="none" stroke="#8b7765" cx="437.268" cy="-2207" rx="59.5901" ry="18"/>
<text text-anchor="middle" x="437.268" y="-2203.3" font-family="Times,serif" font-size="14.00">larvitbase_api</text>
</g>
<!-- larvitfs&#45;&gt;larvitbase_api -->
<g id="edge2" class="edge"><title>larvitfs&#45;&gt;larvitbase_api</title>
<path fill="none" stroke="red" d="M95.7059,-2054.74C117.131,-2069.64 151.976,-2092.74 184.187,-2109 251.725,-2143.08 334.1,-2173.08 385.884,-2190.64"/>
<polygon fill="red" stroke="red" points="384.909,-2194 395.503,-2193.88 387.141,-2187.37 384.909,-2194"/>
</g>
<!-- larvitutils -->
<g id="node2" class="node"><title>larvitutils</title>
<ellipse fill="none" stroke="#8b3a62" cx="74.0934" cy="-1041" rx="44.393" ry="18"/>
<text text-anchor="middle" x="74.0934" y="-1037.3" font-family="Times,serif" font-size="14.00">larvitutils</text>
</g>
<!-- larvitdb -->
<g id="node8" class="node"><title>larvitdb</title>
<ellipse fill="none" stroke="blue" cx="256.33" cy="-1041" rx="38.1938" ry="18"/>
<text text-anchor="middle" x="256.33" y="-1037.3" font-family="Times,serif" font-size="14.00">larvitdb</text>
</g>
<!-- larvitutils&#45;&gt;larvitdb -->
<g id="edge16" class="edge"><title>larvitutils&#45;&gt;larvitdb</title>
<path fill="none" stroke="#8b3a62" d="M118.724,-1041C145.607,-1041 180.09,-1041 207.684,-1041"/>
<polygon fill="#8b3a62" stroke="#8b3a62" points="207.893,-1044.5 217.893,-1041 207.893,-1037.5 207.893,-1044.5"/>
</g>
<!-- larvitamintercom -->
<g id="node9" class="node"><title>larvitamintercom</title>
<ellipse fill="none" stroke="#8b7500" cx="256.33" cy="-858" rx="72.2875" ry="18"/>
<text text-anchor="middle" x="256.33" y="-854.3" font-family="Times,serif" font-size="14.00">larvitamintercom</text>
</g>
<!-- larvitutils&#45;&gt;larvitamintercom -->
<g id="edge13" class="edge"><title>larvitutils&#45;&gt;larvitamintercom</title>
<path fill="none" stroke="#8b3a62" d="M91.4061,-1024.44C123.119,-992.238 193.247,-921.035 230.671,-883.037"/>
<polygon fill="#8b3a62" stroke="#8b3a62" points="233.612,-885.039 238.135,-875.459 228.625,-880.127 233.612,-885.039"/>
</g>
<!-- larvituser_api -->
<g id="node10" class="node"><title>larvituser_api</title>
<ellipse fill="none" stroke="black" cx="759.495" cy="-1890" rx="59.2899" ry="18"/>
<text text-anchor="middle" x="759.495" y="-1886.3" font-family="Times,serif" font-size="14.00">larvituser_api</text>
</g>
<!-- larvitutils&#45;&gt;larvituser_api -->
<g id="edge10" class="edge"><title>larvitutils&#45;&gt;larvituser_api</title>
<path fill="none" stroke="#8b3a62" d="M77.2394,-1058.99C89.0627,-1157.05 147.071,-1624.69 184.187,-1677 302.106,-1843.18 565.251,-1879.92 690.159,-1887.89"/>
<polygon fill="#8b3a62" stroke="#8b3a62" points="690.17,-1891.4 700.36,-1888.5 690.585,-1884.41 690.17,-1891.4"/>
</g>
<!-- larvitlog -->
<g id="node14" class="node"><title>larvitlog</title>
<ellipse fill="none" stroke="black" cx="759.495" cy="-2137" rx="40.0939" ry="18"/>
<text text-anchor="middle" x="759.495" y="-2133.3" font-family="Times,serif" font-size="14.00">larvitlog</text>
</g>
<!-- larvitutils&#45;&gt;larvitlog -->
<g id="edge9" class="edge"><title>larvitutils&#45;&gt;larvitlog</title>
<path fill="none" stroke="#8b3a62" d="M77.4591,-1059.12C91.5902,-1166.96 164.884,-1720.6 184.187,-1751 253.322,-1859.88 610.49,-2057.65 723.896,-2118.61"/>
<polygon fill="#8b3a62" stroke="#8b3a62" points="722.403,-2121.79 732.87,-2123.43 725.711,-2115.62 722.403,-2121.79"/>
</g>
<!-- larvitutils&#45;&gt;larvitproduct -->
<g id="edge19" class="edge"><title>larvitutils&#45;&gt;larvitproduct</title>
<path fill="none" stroke="#8b3a62" d="M76.234,-1059.04C82.0361,-1145.41 110.916,-1515.81 184.187,-1600 325.948,-1762.89 473.072,-1834.93 655.251,-1719 687.123,-1698.72 669.306,-1672.75 691.251,-1642 702.109,-1626.79 716.798,-1612.11 729.677,-1600.57"/>
<polygon fill="#8b3a62" stroke="#8b3a62" points="732.186,-1603.03 737.412,-1593.81 727.579,-1597.75 732.186,-1603.03"/>
</g>
<!-- larvitorder -->
<g id="node18" class="node"><title>larvitorder</title>
<ellipse fill="none" stroke="black" cx="759.495" cy="-813" rx="48.1917" ry="18"/>
<text text-anchor="middle" x="759.495" y="-809.3" font-family="Times,serif" font-size="14.00">larvitorder</text>
</g>
<!-- larvitutils&#45;&gt;larvitorder -->
<g id="edge14" class="edge"><title>larvitutils&#45;&gt;larvitorder</title>
<path fill="none" stroke="#8b3a62" d="M76.817,-1022.83C84.3327,-947.883 116.92,-664.302 184.187,-612 298.525,-523.099 370.965,-571.641 510.061,-612 612.851,-641.825 701.802,-740.844 739.399,-787.833"/>
<polygon fill="#8b3a62" stroke="#8b3a62" points="736.667,-790.022 745.607,-795.708 742.165,-785.688 736.667,-790.022"/>
</g>
<!-- larvitutils&#45;&gt;larvitfiles -->
<g id="edge15" class="edge"><title>larvitutils&#45;&gt;larvitfiles</title>
<path fill="none" stroke="#8b3a62" d="M87.3841,-1058.32C123.808,-1108.39 236.647,-1254.74 364.474,-1333 437.329,-1377.6 462.033,-1380.61 546.061,-1396 599.651,-1405.81 662.097,-1406.3 705.353,-1404.96"/>
<polygon fill="#8b3a62" stroke="#8b3a62" points="705.502,-1408.45 715.372,-1404.6 705.254,-1401.46 705.502,-1408.45"/>
</g>
<!-- larvitutils&#45;&gt;larvitcms -->
<g id="edge11" class="edge"><title>larvitutils&#45;&gt;larvitcms</title>
<path fill="none" stroke="#8b3a62" d="M74.8896,-1022.87C74.1704,-921.746 76.2816,-428.492 184.187,-336 263.684,-267.858 563.808,-294.998 655.251,-346 701.832,-371.98 732.676,-428.823 747.732,-462.806"/>
<polygon fill="#8b3a62" stroke="#8b3a62" points="744.578,-464.332 751.729,-472.149 751.014,-461.579 744.578,-464.332"/>
</g>
<!-- larvitammail -->
<g id="node22" class="node"><title>larvitammail</title>
<ellipse fill="none" stroke="black" cx="759.495" cy="-56" rx="56.59" ry="18"/>
<text text-anchor="middle" x="759.495" y="-52.3" font-family="Times,serif" font-size="14.00">larvitammail</text>
</g>
<!-- larvitutils&#45;&gt;larvitammail -->
<g id="edge21" class="edge"><title>larvitutils&#45;&gt;larvitammail</title>
<path fill="none" stroke="#8b3a62" d="M74.7306,-1022.99C72.8661,-911.679 68.5041,-318.092 184.187,-190 316.711,-43.2592 576.121,-41.6571 695.558,-49.7229"/>
<polygon fill="#8b3a62" stroke="#8b3a62" points="695.413,-53.2213 705.638,-50.4494 695.916,-46.2394 695.413,-53.2213"/>
</g>
<!-- larvitdbmigration -->
<g id="node24" class="node"><title>larvitdbmigration</title>
<ellipse fill="none" stroke="green" cx="437.268" cy="-1250" rx="72.5877" ry="18"/>
<text text-anchor="middle" x="437.268" y="-1246.3" font-family="Times,serif" font-size="14.00">larvitdbmigration</text>
</g>
<!-- larvitutils&#45;&gt;larvitdbmigration -->
<g id="edge12" class="edge"><title>larvitutils&#45;&gt;larvitdbmigration</title>
<path fill="none" stroke="#8b3a62" d="M100.204,-1055.53C162.566,-1091.62 324.782,-1185.49 398.647,-1228.23"/>
<polygon fill="#8b3a62" stroke="#8b3a62" points="397.216,-1231.45 407.625,-1233.43 400.722,-1225.39 397.216,-1231.45"/>
</g>
<!-- larvituser -->
<g id="node25" class="node"><title>larvituser</title>
<ellipse fill="none" stroke="#912cee" cx="600.656" cy="-1692" rx="44.393" ry="18"/>
<text text-anchor="middle" x="600.656" y="-1688.3" font-family="Times,serif" font-size="14.00">larvituser</text>
</g>
<!-- larvitutils&#45;&gt;larvituser -->
<g id="edge18" class="edge"><title>larvitutils&#45;&gt;larvituser</title>
<path fill="none" stroke="#8b3a62" d="M76.5291,-1059.01C83.4227,-1141.15 115.651,-1479.66 184.187,-1556 209.611,-1584.32 450.229,-1651.75 553.234,-1679.62"/>
<polygon fill="#8b3a62" stroke="#8b3a62" points="552.487,-1683.04 563.053,-1682.27 554.311,-1676.28 552.487,-1683.04"/>
</g>
<!-- larvitimages -->
<g id="node26" class="node"><title>larvitimages</title>
<ellipse fill="none" stroke="black" cx="600.656" cy="-406" rx="54.6905" ry="18"/>
<text text-anchor="middle" x="600.656" y="-402.3" font-family="Times,serif" font-size="14.00">larvitimages</text>
</g>
<!-- larvitutils&#45;&gt;larvitimages -->
<g id="edge17" class="edge"><title>larvitutils&#45;&gt;larvitimages</title>
<path fill="none" stroke="#8b3a62" d="M75.1111,-1022.84C75.6228,-925.78 83.4171,-469.417 184.187,-384 291.802,-292.78 477.042,-353.555 558.822,-387.497"/>
<polygon fill="#8b3a62" stroke="#8b3a62" points="557.697,-390.821 568.27,-391.491 560.422,-384.373 557.697,-390.821"/>
</g>
<!-- larvitblog -->
<g id="node31" class="node"><title>larvitblog</title>
<ellipse fill="none" stroke="black" cx="759.495" cy="-345" rx="44.6926" ry="18"/>
<text text-anchor="middle" x="759.495" y="-341.3" font-family="Times,serif" font-size="14.00">larvitblog</text>
</g>
<!-- larvitutils&#45;&gt;larvitblog -->
<g id="edge20" class="edge"><title>larvitutils&#45;&gt;larvitblog</title>
<path fill="none" stroke="#8b3a62" d="M74.9752,-1022.76C74.6925,-918.694 78.6597,-400.893 184.187,-293 331.8,-142.077 462.082,-146.836 655.251,-232 695.229,-249.625 726.442,-291.221 743.658,-318.727"/>
<polygon fill="#8b3a62" stroke="#8b3a62" points="740.775,-320.724 748.952,-327.46 746.761,-317.095 740.775,-320.724"/>
</g>
<!-- check_object_key -->
<g id="node3" class="node"><title>check_object_key</title>
<ellipse fill="none" stroke="mediumvioletred" cx="74.0934" cy="-1618" rx="74.187" ry="18"/>
<text text-anchor="middle" x="74.0934" y="-1614.3" font-family="Times,serif" font-size="14.00">check_object_key</text>
</g>
<!-- check_object_key&#45;&gt;larvitlog -->
<g id="edge22" class="edge"><title>check_object_key&#45;&gt;larvitlog</title>
<path fill="none" stroke="mediumvioletred" d="M78.1153,-1635.99C86.8719,-1683.53 116.098,-1814.51 184.187,-1898 305.237,-2046.43 363.017,-2075.62 546.061,-2132 600.57,-2148.79 666.721,-2147.12 710.571,-2143.17"/>
<polygon fill="mediumvioletred" stroke="mediumvioletred" points="711.058,-2146.64 720.67,-2142.18 710.377,-2139.67 711.058,-2146.64"/>
</g>
<!-- check_object_key&#45;&gt;larvitproduct -->
<g id="edge27" class="edge"><title>check_object_key&#45;&gt;larvitproduct</title>
<path fill="none" stroke="mediumvioletred" d="M85.1688,-1636.16C101.852,-1664.43 138.006,-1718.55 184.187,-1746 364.933,-1853.45 489.926,-1919.93 655.251,-1790 708.477,-1748.17 657.586,-1700.73 691.251,-1642 700.412,-1626.02 714.661,-1611.44 727.688,-1600.15"/>
<polygon fill="mediumvioletred" stroke="mediumvioletred" points="730.145,-1602.66 735.585,-1593.57 725.662,-1597.28 730.145,-1602.66"/>
</g>
<!-- larvitamsettings -->
<g id="node17" class="node"><title>larvitamsettings</title>
<ellipse fill="none" stroke="black" cx="759.495" cy="-1022" rx="67.6881" ry="18"/>
<text text-anchor="middle" x="759.495" y="-1018.3" font-family="Times,serif" font-size="14.00">larvitamsettings</text>
</g>
<!-- check_object_key&#45;&gt;larvitamsettings -->
<g id="edge30" class="edge"><title>check_object_key&#45;&gt;larvitamsettings</title>
<path fill="none" stroke="mediumvioletred" d="M110.291,-1602.16C208.216,-1556.58 487.646,-1416.12 655.251,-1226 655.454,-1225.77 716.584,-1104.89 744.673,-1049.34"/>
<polygon fill="mediumvioletred" stroke="mediumvioletred" points="747.966,-1050.58 749.355,-1040.08 741.719,-1047.42 747.966,-1050.58"/>
</g>
<!-- check_object_key&#45;&gt;larvitorder -->
<g id="edge28" class="edge"><title>check_object_key&#45;&gt;larvitorder</title>
<path fill="none" stroke="mediumvioletred" d="M77.4655,-1599.89C92.8056,-1482.91 177.559,-838.532 184.187,-831 319.496,-677.216 607.237,-758.554 715.822,-796.769"/>
<polygon fill="mediumvioletred" stroke="mediumvioletred" points="714.863,-800.143 725.457,-800.213 717.219,-793.551 714.863,-800.143"/>
</g>
<!-- check_object_key&#45;&gt;larvitfiles -->
<g id="edge24" class="edge"><title>check_object_key&#45;&gt;larvitfiles</title>
<path fill="none" stroke="mediumvioletred" d="M100.894,-1635C189.271,-1690.9 483.801,-1857.78 655.251,-1719 714.944,-1670.68 667.227,-1622.94 691.251,-1550 705.688,-1506.17 729.116,-1457.95 744.16,-1428.83"/>
<polygon fill="mediumvioletred" stroke="mediumvioletred" points="747.39,-1430.21 748.915,-1419.72 741.185,-1426.97 747.39,-1430.21"/>
</g>
<!-- check_object_key&#45;&gt;larvitcms -->
<g id="edge29" class="edge"><title>check_object_key&#45;&gt;larvitcms</title>
<path fill="none" stroke="mediumvioletred" d="M77.9149,-1600.01C88.6169,-1531.18 127.159,-1277.9 148.187,-1068 154.092,-1009.05 150.028,-584.408 184.187,-536 209.457,-500.189 503.147,-387.908 546.061,-379 593.577,-369.137 610.76,-359.621 655.251,-379 694.705,-396.185 725.88,-436.703 743.255,-463.735"/>
<polygon fill="mediumvioletred" stroke="mediumvioletred" points="740.352,-465.695 748.61,-472.332 746.294,-461.994 740.352,-465.695"/>
</g>
<!-- check_object_key&#45;&gt;larvituser -->
<g id="edge25" class="edge"><title>check_object_key&#45;&gt;larvituser</title>
<path fill="none" stroke="mediumvioletred" d="M131.158,-1629.53C189.292,-1641.14 282.92,-1658.88 364.474,-1670 426.745,-1678.49 498.744,-1684.7 546.507,-1688.32"/>
<polygon fill="mediumvioletred" stroke="mediumvioletred" points="546.384,-1691.82 556.616,-1689.07 546.904,-1684.84 546.384,-1691.82"/>
</g>
<!-- check_object_key&#45;&gt;larvitimages -->
<g id="edge26" class="edge"><title>check_object_key&#45;&gt;larvitimages</title>
<path fill="none" stroke="mediumvioletred" d="M77.9149,-1600.01C88.6169,-1531.18 127.159,-1277.9 148.187,-1068 154.092,-1009.05 147.509,-582.528 184.187,-536 228.901,-479.276 438.447,-434.787 541.765,-415.884"/>
<polygon fill="mediumvioletred" stroke="mediumvioletred" points="542.507,-419.306 551.723,-414.081 541.26,-412.418 542.507,-419.306"/>
</g>
<!-- check_object_key&#45;&gt;larvitblog -->
<g id="edge23" class="edge"><title>check_object_key&#45;&gt;larvitblog</title>
<path fill="none" stroke="mediumvioletred" d="M77.9684,-1600.01C88.8636,-1531.2 128.013,-1277.99 148.187,-1068 154.627,-1000.97 144.648,-517.511 184.187,-463 304.712,-296.837 591.736,-319.239 708.149,-336.234"/>
<polygon fill="mediumvioletred" stroke="mediumvioletred" points="707.803,-339.721 718.214,-337.753 708.848,-332.8 707.803,-339.721"/>
</g>
<!-- larvitmail -->
<g id="node4" class="node"><title>larvitmail</title>
<ellipse fill="none" stroke="olivedrab" cx="74.0934" cy="-18" rx="45.4919" ry="18"/>
<text text-anchor="middle" x="74.0934" y="-14.3" font-family="Times,serif" font-size="14.00">larvitmail</text>
</g>
<!-- larvitmail&#45;&gt;larvitammail -->
<g id="edge89" class="edge"><title>larvitmail&#45;&gt;larvitammail</title>
<path fill="none" stroke="olivedrab" d="M119.583,-18.4249C216.901,-19.6648 455.923,-24.4013 655.251,-42 669.171,-43.2289 684.09,-44.991 698.14,-46.8525"/>
<polygon fill="olivedrab" stroke="olivedrab" points="697.808,-50.3396 708.189,-48.2194 698.752,-43.4035 697.808,-50.3396"/>
</g>
<!-- larvitslugify -->
<g id="node5" class="node"><title>larvitslugify</title>
<ellipse fill="none" stroke="orange" cx="74.0934" cy="-170" rx="53.8905" ry="18"/>
<text text-anchor="middle" x="74.0934" y="-166.3" font-family="Times,serif" font-size="14.00">larvitslugify</text>
</g>
<!-- larvitslugify&#45;&gt;larvitcms -->
<g id="edge86" class="edge"><title>larvitslugify&#45;&gt;larvitcms</title>
<path fill="none" stroke="orange" d="M128.18,-168.556C238.367,-168.304 494.957,-182.305 655.251,-308 680.933,-328.138 675.172,-343.6 691.251,-372 709.096,-403.518 729.737,-439.698 743.393,-463.596"/>
<polygon fill="orange" stroke="orange" points="740.438,-465.48 748.439,-472.425 746.515,-462.006 740.438,-465.48"/>
</g>
<!-- larvitslugify&#45;&gt;larvitimages -->
<g id="edge87" class="edge"><title>larvitslugify&#45;&gt;larvitimages</title>
<path fill="none" stroke="orange" d="M107.118,-184.408C197.947,-225.272 457.171,-341.896 558.424,-387.45"/>
<polygon fill="orange" stroke="orange" points="557.163,-390.72 567.719,-391.631 560.035,-384.337 557.163,-390.72"/>
</g>
<!-- larvitslugify&#45;&gt;larvitblog -->
<g id="edge88" class="edge"><title>larvitslugify&#45;&gt;larvitblog</title>
<path fill="none" stroke="orange" d="M108.756,-156.052C205.622,-118.377 488.748,-25.865 655.251,-156 708.887,-197.92 738.453,-275.813 751.057,-317.305"/>
<polygon fill="orange" stroke="orange" points="747.733,-318.411 753.9,-327.026 754.452,-316.446 747.733,-318.411"/>
</g>
<!-- larvitbase -->
<g id="node6" class="node"><title>larvitbase</title>
<ellipse fill="none" stroke="#8b0000" cx="74.0934" cy="-2258" rx="44.6926" ry="18"/>
<text text-anchor="middle" x="74.0934" y="-2254.3" font-family="Times,serif" font-size="14.00">larvitbase</text>
</g>
<!-- larvitbase&#45;&gt;larvitadmingui -->
<g id="edge44" class="edge"><title>larvitbase&#45;&gt;larvitadmingui</title>
<path fill="none" stroke="#8b0000" d="M96.5992,-2242.13C118.153,-2226.59 152.582,-2202.72 184.187,-2185 338.689,-2098.37 382.621,-2086.29 546.061,-2018 593.891,-1998.02 619.587,-2014.62 655.251,-1977 691.807,-1938.44 674.549,-1913.44 691.251,-1863 710.917,-1803.61 735.222,-1734.48 748.563,-1696.87"/>
<polygon fill="#8b0000" stroke="#8b0000" points="751.973,-1697.73 752.022,-1687.13 745.377,-1695.38 751.973,-1697.73"/>
</g>
<!-- larvitbase&#45;&gt;larvitbase_www -->
<g id="edge43" class="edge"><title>larvitbase&#45;&gt;larvitbase_www</title>
<path fill="none" stroke="#8b0000" d="M89.1458,-2275.29C108.072,-2297.06 144.043,-2333.38 184.187,-2348 360.04,-2412.04 586.753,-2384.86 695.214,-2365.8"/>
<polygon fill="#8b0000" stroke="#8b0000" points="696.111,-2369.19 705.336,-2363.98 694.875,-2362.3 696.111,-2369.19"/>
</g>
<!-- larvitbase&#45;&gt;larvitbase_api -->
<g id="edge45" class="edge"><title>larvitbase&#45;&gt;larvitbase_api</title>
<path fill="none" stroke="#8b0000" d="M118.946,-2257.55C169.754,-2256.37 255.801,-2252.35 328.474,-2239 348.33,-2235.35 369.734,-2229.43 388.195,-2223.66"/>
<polygon fill="#8b0000" stroke="#8b0000" points="389.376,-2226.96 397.838,-2220.59 387.247,-2220.29 389.376,-2226.96"/>
</g>
<!-- larvitreqparser -->
<g id="node7" class="node"><title>larvitreqparser</title>
<ellipse fill="none" stroke="#473c8b" cx="74.0934" cy="-2361" rx="61.99" ry="18"/>
<text text-anchor="middle" x="74.0934" y="-2357.3" font-family="Times,serif" font-size="14.00">larvitreqparser</text>
</g>
<!-- larvitreqparser&#45;&gt;larvitbase_www -->
<g id="edge80" class="edge"><title>larvitreqparser&#45;&gt;larvitbase_www</title>
<path fill="none" stroke="#473c8b" d="M119.024,-2373.44C138.767,-2378.42 162.466,-2383.54 184.187,-2386 392.222,-2409.53 448.389,-2418.26 655.251,-2386 673.903,-2383.09 693.789,-2377.4 711.08,-2371.54"/>
<polygon fill="#473c8b" stroke="#473c8b" points="712.646,-2374.7 720.931,-2368.1 710.336,-2368.1 712.646,-2374.7"/>
</g>
<!-- larvitreqparser&#45;&gt;larvitbase_api -->
<g id="edge81" class="edge"><title>larvitreqparser&#45;&gt;larvitbase_api</title>
<path fill="none" stroke="#473c8b" d="M113.252,-2346.85C163.18,-2328.09 253.174,-2293.46 328.474,-2260 351.611,-2249.72 377.046,-2237.27 397.396,-2227.02"/>
<polygon fill="#473c8b" stroke="#473c8b" points="399.021,-2230.12 406.362,-2222.48 395.859,-2223.88 399.021,-2230.12"/>
</g>
<!-- larvitdb&#45;&gt;larvitadmingui -->
<g id="edge31" class="edge"><title>larvitdb&#45;&gt;larvitadmingui</title>
<path fill="none" stroke="blue" d="M259.294,-1059.14C267.756,-1134.02 303.459,-1418 364.474,-1480 411.382,-1527.66 461.293,-1472.24 510.061,-1518 547.267,-1552.91 507.823,-1593.23 546.061,-1627 567.006,-1645.5 635.269,-1656.68 688.827,-1662.8"/>
<polygon fill="blue" stroke="blue" points="688.659,-1666.3 698.982,-1663.92 689.427,-1659.34 688.659,-1666.3"/>
</g>
<!-- larvitgeodata -->
<g id="node16" class="node"><title>larvitgeodata</title>
<ellipse fill="none" stroke="black" cx="759.495" cy="-1182" rx="56.59" ry="18"/>
<text text-anchor="middle" x="759.495" y="-1178.3" font-family="Times,serif" font-size="14.00">larvitgeodata</text>
</g>
<!-- larvitdb&#45;&gt;larvitgeodata -->
<g id="edge34" class="edge"><title>larvitdb&#45;&gt;larvitgeodata</title>
<path fill="none" stroke="blue" d="M289.827,-1050.14C374.633,-1074 603.215,-1138.31 706.535,-1167.38"/>
<polygon fill="blue" stroke="blue" points="705.856,-1170.83 716.43,-1170.17 707.752,-1164.09 705.856,-1170.83"/>
</g>
<!-- larvitdb&#45;&gt;larvitamsettings -->
<g id="edge39" class="edge"><title>larvitdb&#45;&gt;larvitamsettings</title>
<path fill="none" stroke="blue" d="M294.59,-1039.59C376.34,-1036.49 572.835,-1029.04 682.047,-1024.9"/>
<polygon fill="blue" stroke="blue" points="682.476,-1028.38 692.336,-1024.51 682.211,-1021.39 682.476,-1028.38"/>
</g>
<!-- larvitdb&#45;&gt;larvitorder -->
<g id="edge41" class="edge"><title>larvitdb&#45;&gt;larvitorder</title>
<path fill="none" stroke="blue" d="M286.236,-1029.72C352.45,-1003.63 519.84,-936.275 655.251,-870 678.535,-858.604 704.041,-844.538 723.876,-833.231"/>
<polygon fill="blue" stroke="blue" points="725.629,-836.26 732.562,-828.249 722.147,-830.188 725.629,-836.26"/>
</g>
<!-- larvitdb&#45;&gt;larvitfiles -->
<g id="edge35" class="edge"><title>larvitdb&#45;&gt;larvitfiles</title>
<path fill="none" stroke="blue" d="M260.585,-1059.18C269.341,-1102.92 297.429,-1214.96 364.474,-1277 461.309,-1366.6 622.252,-1391.98 705.298,-1399.16"/>
<polygon fill="blue" stroke="blue" points="705.022,-1402.65 715.272,-1399.97 705.587,-1395.67 705.022,-1402.65"/>
</g>
<!-- larvitdb&#45;&gt;larvitcms -->
<g id="edge42" class="edge"><title>larvitdb&#45;&gt;larvitcms</title>
<path fill="none" stroke="blue" d="M265.005,-1023.29C280.029,-990.268 316.121,-918.536 364.474,-873 418.379,-822.236 461.839,-848.191 510.061,-792 540.008,-757.104 520.888,-733.482 546.061,-695 597.197,-616.829 683.194,-546.06 728.496,-511.773"/>
<polygon fill="blue" stroke="blue" points="730.823,-514.403 736.728,-505.607 726.626,-508.801 730.823,-514.403"/>
</g>
<!-- larvitdb&#45;&gt;larvitdbmigration -->
<g id="edge36" class="edge"><title>larvitdb&#45;&gt;larvitdbmigration</title>
<path fill="none" stroke="blue" d="M271.671,-1057.75C302.913,-1094.24 377.289,-1181.11 414.411,-1224.47"/>
<polygon fill="blue" stroke="blue" points="411.94,-1226.97 421.103,-1232.29 417.258,-1222.41 411.94,-1226.97"/>
</g>
<!-- larvitdb&#45;&gt;larvituser -->
<g id="edge32" class="edge"><title>larvitdb&#45;&gt;larvituser</title>
<path fill="none" stroke="blue" d="M257.173,-1059.07C257.412,-1125.68 265.556,-1361.63 364.474,-1518 419.245,-1604.58 461.56,-1602.07 546.061,-1660 552.145,-1664.17 558.782,-1668.39 565.248,-1672.33"/>
<polygon fill="blue" stroke="blue" points="563.514,-1675.37 573.892,-1677.5 567.11,-1669.36 563.514,-1675.37"/>
</g>
<!-- larvitdb&#45;&gt;larvitimages -->
<g id="edge38" class="edge"><title>larvitdb&#45;&gt;larvitimages</title>
<path fill="none" stroke="blue" d="M266.253,-1023.56C280.602,-995.072 309.151,-936.567 328.474,-885 348.162,-832.46 337.053,-812.95 364.474,-764 411.785,-679.546 463.211,-686.71 510.061,-602 538.248,-551.035 519.899,-528.034 546.061,-476 554.183,-459.847 566.22,-443.697 576.831,-430.986"/>
<polygon fill="blue" stroke="blue" points="579.687,-433.033 583.542,-423.164 574.374,-428.475 579.687,-433.033"/>
</g>
<!-- larvitsession -->
<g id="node27" class="node"><title>larvitsession</title>
<ellipse fill="none" stroke="black" cx="600.656" cy="-1600" rx="54.6905" ry="18"/>
<text text-anchor="middle" x="600.656" y="-1596.3" font-family="Times,serif" font-size="14.00">larvitsession</text>
</g>
<!-- larvitdb&#45;&gt;larvitsession -->
<g id="edge37" class="edge"><title>larvitdb&#45;&gt;larvitsession</title>
<path fill="none" stroke="blue" d="M259.863,-1059.14C270.041,-1129.64 310.055,-1384.37 364.474,-1442 411.248,-1491.54 453.941,-1451.37 510.061,-1490 542.044,-1512.02 568.611,-1548.63 584.305,-1573.51"/>
<polygon fill="blue" stroke="blue" points="581.366,-1575.42 589.585,-1582.1 587.329,-1571.75 581.366,-1575.42"/>
</g>
<!-- larvitamsync -->
<g id="node28" class="node"><title>larvitamsync</title>
<ellipse fill="none" stroke="#000080" cx="437.268" cy="-900" rx="56.59" ry="18"/>
<text text-anchor="middle" x="437.268" y="-896.3" font-family="Times,serif" font-size="14.00">larvitamsync</text>
</g>
<!-- larvitdb&#45;&gt;larvitamsync -->
<g id="edge40" class="edge"><title>larvitdb&#45;&gt;larvitamsync</title>
<path fill="none" stroke="blue" d="M270.619,-1023.92C289.44,-1000.63 325.887,-958.776 364.474,-932 372.213,-926.629 380.999,-921.829 389.704,-917.68"/>
<polygon fill="blue" stroke="blue" points="391.401,-920.754 399.065,-913.44 388.512,-914.378 391.401,-920.754"/>
</g>
<!-- larvitdb&#45;&gt;larvitblog -->
<g id="edge33" class="edge"><title>larvitdb&#45;&gt;larvitblog</title>
<path fill="none" stroke="blue" d="M265.78,-1023.37C279.465,-994.619 307.1,-935.751 328.474,-885 345.677,-844.153 336.571,-826.436 364.474,-792 413.116,-731.971 464.136,-759.132 510.061,-697 544.426,-650.508 517.519,-622.277 546.061,-572 595.481,-484.949 684.786,-404.892 730.251,-367.381"/>
<polygon fill="blue" stroke="blue" points="732.68,-369.916 738.211,-360.879 728.252,-364.495 732.68,-369.916"/>
</g>
<!-- larvitamintercom&#45;&gt;larvitlog -->
<g id="edge61" class="edge"><title>larvitamintercom&#45;&gt;larvitlog</title>
<path fill="none" stroke="#8b7500" d="M268.046,-875.959C284.31,-904.215 314.78,-961.276 328.474,-1014 378.579,-1206.91 304.804,-1270.83 364.474,-1461 451.958,-1739.81 670.628,-2027.37 738.247,-2112.11"/>
<polygon fill="#8b7500" stroke="#8b7500" points="735.681,-2114.51 744.668,-2120.12 741.141,-2110.13 735.681,-2114.51"/>
</g>
<!-- larvitamintercom&#45;&gt;larvitproduct -->
<g id="edge64" class="edge"><title>larvitamintercom&#45;&gt;larvitproduct</title>
<path fill="none" stroke="#8b7500" d="M267.689,-876.057C283.476,-904.444 313.318,-961.678 328.474,-1014 361.3,-1127.32 289.837,-1185.63 364.474,-1277 407.847,-1330.1 460.627,-1280.49 510.061,-1328 541.422,-1358.14 519.6,-1384.48 546.061,-1419 593.904,-1481.41 672.685,-1530.97 719.68,-1556.98"/>
<polygon fill="#8b7500" stroke="#8b7500" points="718.182,-1560.15 728.637,-1561.87 721.533,-1554.01 718.182,-1560.15"/>
</g>
<!-- larvitamintercom&#45;&gt;larvitamsettings -->
<g id="edge66" class="edge"><title>larvitamintercom&#45;&gt;larvitamsettings</title>
<path fill="none" stroke="#8b7500" d="M327.821,-855.336C379.097,-855.043 449.8,-858.063 510.061,-873 578.862,-890.053 594.892,-901.836 655.251,-939 683.259,-956.245 712.196,-980.126 732.282,-997.846"/>
<polygon fill="#8b7500" stroke="#8b7500" points="729.999,-1000.5 739.79,-1004.55 734.66,-995.277 729.999,-1000.5"/>
</g>
<!-- larvitamintercom&#45;&gt;larvitorder -->
<g id="edge65" class="edge"><title>larvitamintercom&#45;&gt;larvitorder</title>
<path fill="none" stroke="#8b7500" d="M281.501,-841.01C302.369,-827.444 333.899,-809.508 364.474,-802 483.962,-772.657 629.964,-789.956 706.3,-802.855"/>
<polygon fill="#8b7500" stroke="#8b7500" points="706.148,-806.381 716.599,-804.641 707.344,-799.484 706.148,-806.381"/>
</g>
<!-- larvitamintercom&#45;&gt;larvitfiles -->
<g id="edge62" class="edge"><title>larvitamintercom&#45;&gt;larvitfiles</title>
<path fill="none" stroke="#8b7500" d="M273.72,-875.791C347.729,-956.126 650.835,-1285.14 736.091,-1377.68"/>
<polygon fill="#8b7500" stroke="#8b7500" points="733.629,-1380.17 742.979,-1385.16 738.778,-1375.43 733.629,-1380.17"/>
</g>
<!-- larvitamintercom&#45;&gt;larvitcms -->
<g id="edge70" class="edge"><title>larvitamintercom&#45;&gt;larvitcms</title>
<path fill="none" stroke="#8b7500" d="M276.421,-840.608C319.995,-800.507 429.249,-697.653 510.061,-602 527.733,-581.083 523.701,-567.807 546.061,-552 594.039,-518.082 660.508,-502.562 706.252,-495.564"/>
<polygon fill="#8b7500" stroke="#8b7500" points="706.861,-499.012 716.258,-494.117 705.86,-492.084 706.861,-499.012"/>
</g>
<!-- larvitamintercom&#45;&gt;larvitammail -->
<g id="edge71" class="edge"><title>larvitamintercom&#45;&gt;larvitammail</title>
<path fill="none" stroke="#8b7500" d="M257.527,-839.573C259.019,-773.756 271.032,-546.009 364.474,-392 456.674,-240.037 641.482,-122.386 720.858,-76.6897"/>
<polygon fill="#8b7500" stroke="#8b7500" points="723.048,-79.4698 730.002,-71.4762 719.581,-73.3888 723.048,-79.4698"/>
</g>
<!-- larvitamintercom&#45;&gt;larvituser -->
<g id="edge68" class="edge"><title>larvitamintercom&#45;&gt;larvituser</title>
<path fill="none" stroke="#8b7500" d="M267.829,-876.017C283.803,-904.351 313.891,-961.515 328.474,-1014 366.079,-1149.34 318.747,-1195.18 364.474,-1328 404.839,-1445.25 446.195,-1459.71 510.061,-1566 526.275,-1592.98 527.992,-1601.22 546.061,-1627 555.815,-1640.92 567.755,-1655.59 577.888,-1667.47"/>
<polygon fill="#8b7500" stroke="#8b7500" points="575.38,-1669.92 584.565,-1675.2 580.678,-1665.34 575.38,-1669.92"/>
</g>
<!-- larvitamintercom&#45;&gt;larvitimages -->
<g id="edge69" class="edge"><title>larvitamintercom&#45;&gt;larvitimages</title>
<path fill="none" stroke="#8b7500" d="M263.857,-839.939C278.107,-802.073 314.751,-712.699 364.474,-650 417.286,-583.405 452.459,-588.498 510.061,-526 528.619,-505.865 529.736,-497.984 546.061,-476 557.065,-461.182 569.593,-444.792 579.769,-431.599"/>
<polygon fill="#8b7500" stroke="#8b7500" points="582.73,-433.492 586.077,-423.44 577.192,-429.211 582.73,-433.492"/>
</g>
<!-- larvitamintercom&#45;&gt;larvitamsync -->
<g id="edge67" class="edge"><title>larvitamintercom&#45;&gt;larvitamsync</title>
<path fill="none" stroke="#8b7500" d="M309.568,-870.261C332.122,-875.555 358.519,-881.751 381.363,-887.113"/>
<polygon fill="#8b7500" stroke="#8b7500" points="380.712,-890.555 391.247,-889.433 382.311,-883.74 380.712,-890.555"/>
</g>
<!-- larvitamintercom&#45;&gt;larvitblog -->
<g id="edge63" class="edge"><title>larvitamintercom&#45;&gt;larvitblog</title>
<path fill="none" stroke="#8b7500" d="M259.322,-839.968C265.929,-786.827 291.042,-627.919 364.474,-522 423.003,-437.578 451.967,-420.22 546.061,-379 596.737,-356.8 659.891,-348.908 704.117,-346.198"/>
<polygon fill="#8b7500" stroke="#8b7500" points="704.577,-349.678 714.373,-345.642 704.198,-342.689 704.577,-349.678"/>
</g>
<!-- larviturltopdf -->
<g id="node11" class="node"><title>larviturltopdf</title>
<ellipse fill="none" stroke="black" cx="759.495" cy="-2407" rx="57.6901" ry="18"/>
<text text-anchor="middle" x="759.495" y="-2403.3" font-family="Times,serif" font-size="14.00">larviturltopdf</text>
</g>
<!-- larvitsmpp -->
<g id="node12" class="node"><title>larvitsmpp</title>
<ellipse fill="none" stroke="black" cx="759.495" cy="-2461" rx="48.9926" ry="18"/>
<text text-anchor="middle" x="759.495" y="-2457.3" font-family="Times,serif" font-size="14.00">larvitsmpp</text>
</g>
<!-- larvitdbmigration&#45;&gt;larvitadmingui -->
<g id="edge46" class="edge"><title>larvitdbmigration&#45;&gt;larvitadmingui</title>
<path fill="none" stroke="green" d="M449.036,-1268.14C467.829,-1299.5 508.229,-1365.62 546.061,-1419 606.501,-1504.27 621.248,-1526.39 691.251,-1604 703.949,-1618.08 719.053,-1632.84 731.727,-1644.73"/>
<polygon fill="green" stroke="green" points="729.552,-1647.48 739.261,-1651.73 734.317,-1642.36 729.552,-1647.48"/>
</g>
<!-- larvitdbmigration&#45;&gt;larvitproduct -->
<g id="edge56" class="edge"><title>larvitdbmigration&#45;&gt;larvitproduct</title>
<path fill="none" stroke="green" d="M465.794,-1266.7C479.722,-1275.74 496.502,-1287.59 510.061,-1300 528.449,-1316.83 529.681,-1324.21 546.061,-1343 613.614,-1420.48 696.061,-1509.87 735.427,-1552.25"/>
<polygon fill="green" stroke="green" points="732.89,-1554.66 742.263,-1559.6 738.017,-1549.9 732.89,-1554.66"/>
</g>
<!-- larvitdbmigration&#45;&gt;larvitgeodata -->
<g id="edge50" class="edge"><title>larvitdbmigration&#45;&gt;larvitgeodata</title>
<path fill="none" stroke="green" d="M485.844,-1263.52C530.798,-1273.89 599.47,-1283.46 655.251,-1264 687.497,-1252.75 717.224,-1226.76 736.416,-1207.04"/>
<polygon fill="green" stroke="green" points="739.157,-1209.23 743.483,-1199.56 734.07,-1204.42 739.157,-1209.23"/>
</g>
<!-- larvitdbmigration&#45;&gt;larvitamsettings -->
<g id="edge54" class="edge"><title>larvitdbmigration&#45;&gt;larvitamsettings</title>
<path fill="none" stroke="green" d="M505.567,-1243.54C551.544,-1236.26 611.778,-1220.8 655.251,-1188 703.047,-1151.94 733.998,-1086.75 748.623,-1049.7"/>
<polygon fill="green" stroke="green" points="752.012,-1050.63 752.315,-1040.04 745.474,-1048.13 752.012,-1050.63"/>
</g>
<!-- larvitdbmigration&#45;&gt;larvitorder -->
<g id="edge55" class="edge"><title>larvitdbmigration&#45;&gt;larvitorder</title>
<path fill="none" stroke="green" d="M451.914,-1232.15C486.419,-1186.94 579.771,-1064.11 655.251,-960 685.611,-918.127 719.964,-868.814 740.396,-839.274"/>
<polygon fill="green" stroke="green" points="743.465,-840.988 746.27,-830.771 737.706,-837.009 743.465,-840.988"/>
</g>
<!-- larvitdbmigration&#45;&gt;larvitfiles -->
<g id="edge51" class="edge"><title>larvitdbmigration&#45;&gt;larvitfiles</title>
<path fill="none" stroke="green" d="M471.932,-1265.98C532.112,-1294.54 657.723,-1354.17 720.738,-1384.08"/>
<polygon fill="green" stroke="green" points="719.395,-1387.31 729.93,-1388.44 722.397,-1380.99 719.395,-1387.31"/>
</g>
<!-- larvitdbmigration&#45;&gt;larvitcms -->
<g id="edge47" class="edge"><title>larvitdbmigration&#45;&gt;larvitcms</title>
<path fill="none" stroke="green" d="M443.731,-1231.88C457.977,-1185.53 498.472,-1059.3 546.061,-960 586.994,-874.591 614.769,-862.624 655.251,-777 698.659,-685.188 734.973,-569.862 750.46,-517.783"/>
<polygon fill="green" stroke="green" points="753.889,-518.53 753.36,-507.948 747.174,-516.55 753.889,-518.53"/>
</g>
<!-- larvitdbmigration&#45;&gt;larvituser -->
<g id="edge48" class="edge"><title>larvitdbmigration&#45;&gt;larvituser</title>
<path fill="none" stroke="green" d="M451.275,-1267.75C467.795,-1291.24 495.858,-1334.56 510.061,-1376 546.599,-1482.61 500.521,-1523.91 546.061,-1627 552.784,-1642.22 564.114,-1656.75 574.63,-1668.19"/>
<polygon fill="green" stroke="green" points="572.27,-1670.79 581.713,-1675.59 577.328,-1665.95 572.27,-1670.79"/>
</g>
<!-- larvitdbmigration&#45;&gt;larvitimages -->
<g id="edge53" class="edge"><title>larvitdbmigration&#45;&gt;larvitimages</title>
<path fill="none" stroke="green" d="M442.839,-1231.89C455.066,-1182.99 489.019,-1044.03 510.061,-927 530.782,-811.75 526.23,-781.407 546.061,-666 560.647,-581.121 582.496,-481.622 593.233,-434.072"/>
<polygon fill="green" stroke="green" points="596.672,-434.73 595.47,-424.204 589.846,-433.182 596.672,-434.73"/>
</g>
<!-- larvitdbmigration&#45;&gt;larvitsession -->
<g id="edge52" class="edge"><title>larvitdbmigration&#45;&gt;larvitsession</title>
<path fill="none" stroke="green" d="M451.003,-1267.84C467.228,-1291.44 494.973,-1334.87 510.061,-1376 539.964,-1457.51 496.4,-1496.79 546.061,-1568 549.238,-1572.56 553.291,-1576.57 557.742,-1580.08"/>
<polygon fill="green" stroke="green" points="555.865,-1583.03 566.08,-1585.85 559.85,-1577.28 555.865,-1583.03"/>
</g>
<!-- larvitdbmigration&#45;&gt;larvitblog -->
<g id="edge49" class="edge"><title>larvitdbmigration&#45;&gt;larvitblog</title>
<path fill="none" stroke="green" d="M442.299,-1231.77C461.335,-1145.75 541.497,-784.061 546.061,-773 580.884,-688.603 618.893,-682.747 655.251,-599 680.152,-541.646 667.574,-520.87 691.251,-463 704.888,-429.67 726.187,-394.111 741.152,-370.844"/>
<polygon fill="green" stroke="green" points="744.217,-372.552 746.745,-362.263 738.353,-368.73 744.217,-372.552"/>
</g>
<!-- larvituser&#45;&gt;larvituser_api -->
<g id="edge58" class="edge"><title>larvituser&#45;&gt;larvituser_api</title>
<path fill="none" stroke="#912cee" d="M615.3,-1709.22C642.981,-1744.17 705.855,-1823.54 738.296,-1864.5"/>
<polygon fill="#912cee" stroke="#912cee" points="735.593,-1866.72 744.546,-1872.39 741.081,-1862.38 735.593,-1866.72"/>
</g>
<!-- larvituser&#45;&gt;larvitadmingui -->
<g id="edge57" class="edge"><title>larvituser&#45;&gt;larvitadmingui</title>
<path fill="none" stroke="#912cee" d="M642.454,-1686.02C657.932,-1683.75 675.973,-1681.1 693.152,-1678.58"/>
<polygon fill="#912cee" stroke="#912cee" points="693.755,-1682.03 703.141,-1677.12 692.739,-1675.11 693.755,-1682.03"/>
</g>
<!-- larvitimages&#45;&gt;larvitblog -->
<g id="edge59" class="edge"><title>larvitimages&#45;&gt;larvitblog</title>
<path fill="none" stroke="black" d="M636.854,-392.31C660.614,-383.069 692.072,-370.834 717.045,-361.122"/>
<polygon fill="black" stroke="black" points="718.562,-364.287 726.613,-357.4 716.025,-357.763 718.562,-364.287"/>
</g>
<!-- larvitsession&#45;&gt;larvitadmingui -->
<g id="edge60" class="edge"><title>larvitsession&#45;&gt;larvitadmingui</title>
<path fill="none" stroke="black" d="M634.153,-1614.3C657.544,-1624.59 689.352,-1638.58 714.94,-1649.84"/>
<polygon fill="black" stroke="black" points="713.849,-1653.18 724.412,-1654.01 716.668,-1646.77 713.849,-1653.18"/>
</g>
<!-- larvitamsync&#45;&gt;larvitproduct -->
<g id="edge74" class="edge"><title>larvitamsync&#45;&gt;larvitproduct</title>
<path fill="none" stroke="#000080" d="M447.666,-917.741C478.819,-976.804 580.929,-1172.47 655.251,-1339 672.81,-1378.34 674.337,-1389.38 691.251,-1429 709.37,-1471.44 731.777,-1520.05 745.602,-1549.63"/>
<polygon fill="#000080" stroke="#000080" points="742.531,-1551.32 749.943,-1558.89 748.87,-1548.35 742.531,-1551.32"/>
</g>
<!-- larvitamsync&#45;&gt;larvitamsettings -->
<g id="edge76" class="edge"><title>larvitamsync&#45;&gt;larvitamsettings</title>
<path fill="none" stroke="#000080" d="M474.379,-913.758C532.256,-935.808 645.831,-979.077 710.478,-1003.71"/>
<polygon fill="#000080" stroke="#000080" points="709.442,-1007.06 720.033,-1007.35 711.934,-1000.52 709.442,-1007.06"/>
</g>
<!-- larvitamsync&#45;&gt;larvitorder -->
<g id="edge75" class="edge"><title>larvitamsync&#45;&gt;larvitorder</title>
<path fill="none" stroke="#000080" d="M480.791,-888.447C540.099,-872.334 647.378,-843.189 709.814,-826.226"/>
<polygon fill="#000080" stroke="#000080" points="711.076,-829.51 719.809,-823.51 709.241,-822.755 711.076,-829.51"/>
</g>
<!-- larvitamsync&#45;&gt;larvitfiles -->
<g id="edge72" class="edge"><title>larvitamsync&#45;&gt;larvitfiles</title>
<path fill="none" stroke="#000080" d="M459.88,-916.62C502.841,-950.702 599.617,-1032.84 655.251,-1122 669.213,-1144.37 726.275,-1308.28 749.047,-1374.43"/>
<polygon fill="#000080" stroke="#000080" points="745.834,-1375.85 752.395,-1384.17 752.454,-1373.57 745.834,-1375.85"/>
</g>
<!-- larvitamsync&#45;&gt;larvitcms -->
<g id="edge79" class="edge"><title>larvitamsync&#45;&gt;larvitcms</title>
<path fill="none" stroke="#000080" d="M477.502,-887.277C488.791,-882.409 500.598,-876.041 510.061,-868 632.158,-764.254 717.437,-585.779 747.031,-517.586"/>
<polygon fill="#000080" stroke="#000080" points="750.425,-518.551 751.146,-507.981 743.991,-515.795 750.425,-518.551"/>
</g>
<!-- larvitamsync&#45;&gt;larvituser -->
<g id="edge77" class="edge"><title>larvitamsync&#45;&gt;larvituser</title>
<path fill="none" stroke="#000080" d="M443.149,-918.055C456.148,-966.832 491.845,-1105.49 510.061,-1223 537.676,-1401.14 477.659,-1460.21 546.061,-1627 552.374,-1642.39 563.658,-1656.94 574.25,-1668.35"/>
<polygon fill="#000080" stroke="#000080" points="571.927,-1670.99 581.402,-1675.73 576.951,-1666.11 571.927,-1670.99"/>
</g>
<!-- larvitamsync&#45;&gt;larvitimages -->
<g id="edge78" class="edge"><title>larvitamsync&#45;&gt;larvitimages</title>
<path fill="none" stroke="#000080" d="M448.796,-882.175C464.28,-855.26 493.178,-802.257 510.061,-754 534.705,-683.562 527.616,-662.309 546.061,-590 560.32,-534.101 579.849,-469.518 590.969,-433.655"/>
<polygon fill="#000080" stroke="#000080" points="594.372,-434.499 594.003,-423.911 587.688,-432.418 594.372,-434.499"/>
</g>
<!-- larvitamsync&#45;&gt;larvitblog -->
<g id="edge73" class="edge"><title>larvitamsync&#45;&gt;larvitblog</title>
<path fill="none" stroke="#000080" d="M452.552,-882.294C468.552,-861.696 494.302,-826.138 510.061,-792 534.472,-739.122 521.482,-718.8 546.061,-666 582.705,-587.284 607.342,-576.414 655.251,-504 685.995,-457.531 721.227,-402.99 741.566,-371.374"/>
<polygon fill="#000080" stroke="#000080" points="744.672,-373.015 747.136,-362.711 738.784,-369.23 744.672,-373.015"/>
</g>
<!-- larvitrouter&#45;&gt;larvitbase_www -->
<g id="edge82" class="edge"><title>larvitrouter&#45;&gt;larvitbase_www</title>
<path fill="none" stroke="#8b5a2b" d="M297.598,-2222.3C369.624,-2240.86 525.158,-2281.58 655.251,-2320 671.915,-2324.92 689.99,-2330.59 706.289,-2335.82"/>
<polygon fill="#8b5a2b" stroke="#8b5a2b" points="705.589,-2339.27 716.18,-2339.01 707.738,-2332.61 705.589,-2339.27"/>
</g>
<!-- larvitrouter&#45;&gt;larvitbase_api -->
<g id="edge83" class="edge"><title>larvitrouter&#45;&gt;larvitbase_api</title>
<path fill="none" stroke="#8b5a2b" d="M306.699,-2210.62C325.46,-2210.1 347.187,-2209.49 367.425,-2208.92"/>
<polygon fill="#8b5a2b" stroke="#8b5a2b" points="367.635,-2212.42 377.534,-2208.64 367.44,-2205.42 367.635,-2212.42"/>
</g>
<!-- larvitbase_api&#45;&gt;larvituser_api -->
<g id="edge85" class="edge"><title>larvitbase_api&#45;&gt;larvituser_api</title>
<path fill="none" stroke="#8b7765" d="M460.012,-2190.18C500.396,-2158.49 588.895,-2086.92 655.251,-2018 687.236,-1984.78 719.96,-1942.53 739.757,-1915.86"/>
<polygon fill="#8b7765" stroke="#8b7765" points="742.596,-1917.91 745.713,-1907.78 736.962,-1913.75 742.596,-1917.91"/>
</g>
<!-- larvitbase_api&#45;&gt;larvitlog -->
<g id="edge84" class="edge"><title>larvitbase_api&#45;&gt;larvitlog</title>
<path fill="none" stroke="#8b7765" d="M492.648,-2199.89C536.799,-2193.6 600.489,-2183.35 655.251,-2170 676.269,-2164.88 699.23,-2157.7 718.151,-2151.35"/>
<polygon fill="#8b7765" stroke="#8b7765" points="719.306,-2154.65 727.645,-2148.12 717.051,-2148.02 719.306,-2154.65"/>
</g>
</g>
</svg>
